  0
SECTION
  2
HEADER
  9
$ACADVER
  1
AC1014
  9
$ACADMAINTVER
 70
     9
  9
$DWGCODEPAGE
  3
MAC-ROMAN
  9
$INSBASE
 10
0.0
 20
0.0
 30
0.0
  9
$EXTMIN
 10
1.000000000000000E+20
 20
1.000000000000000E+20
 30
1.000000000000000E+20
  9
$EXTMAX
 10
-1.000000000000000E+20
 20
-1.000000000000000E+20
 30
-1.000000000000000E+20
  9
$LIMMIN
 10
0.0
 20
0.0
  9
$LIMMAX
 10
12.0
 20
9.0
  9
$ORTHOMODE
 70
     0
  9
$REGENMODE
 70
     1
  9
$FILLMODE
 70
     1
  9
$QTEXTMODE
 70
     0
  9
$MIRRTEXT
 70
     1
  9
$DRAGMODE
 70
     2
  9
$LTSCALE
 40
1.0
  9
$OSMODE
 70
    37
  9
$ATTMODE
 70
     1
  9
$TEXTSIZE
 40
0.2
  9
$TRACEWID
 40
0.05
  9
$TEXTSTYLE
  7
STANDARD
  9
$CLAYER
  8
0
  9
$CELTYPE
  6
BYLAYER
  9
$CECOLOR
 62
   256
  9
$CELTSCALE
 40
1.0
  9
$DELOBJ
 70
     1
  9
$DISPSILH
 70
     0
  9
$DIMSCALE
 40
1.0
  9
$DIMASZ
 40
0.18
  9
$DIMEXO
 40
0.0625
  9
$DIMDLI
 40
0.38
  9
$DIMRND
 40
0.0
  9
$DIMDLE
 40
0.0
  9
$DIMEXE
 40
0.18
  9
$DIMTP
 40
0.0
  9
$DIMTM
 40
0.0
  9
$DIMTXT
 40
0.18
  9
$DIMCEN
 40
0.09
  9
$DIMTSZ
 40
0.0
  9
$DIMTOL
 70
     0
  9
$DIMLIM
 70
     0
  9
$DIMTIH
 70
     1
  9
$DIMTOH
 70
     1
  9
$DIMSE1
 70
     0
  9
$DIMSE2
 70
     0
  9
$DIMTAD
 70
     0
  9
$DIMZIN
 70
     0
  9
$DIMBLK
  1

  9
$DIMASO
 70
     1
  9
$DIMSHO
 70
     1
  9
$DIMPOST
  1

  9
$DIMAPOST
  1

  9
$DIMALT
 70
     0
  9
$DIMALTD
 70
     2
  9
$DIMALTF
 40
25.4
  9
$DIMLFAC
 40
1.0
  9
$DIMTOFL
 70
     0
  9
$DIMTVP
 40
0.0
  9
$DIMTIX
 70
     0
  9
$DIMSOXD
 70
     0
  9
$DIMSAH
 70
     0
  9
$DIMBLK1
  1

  9
$DIMBLK2
  1

  9
$DIMSTYLE
  2
STANDARD
  9
$DIMCLRD
 70
     0
  9
$DIMCLRE
 70
     0
  9
$DIMCLRT
 70
     0
  9
$DIMTFAC
 40
1.0
  9
$DIMGAP
 40
0.09
  9
$DIMJUST
 70
     0
  9
$DIMSD1
 70
     0
  9
$DIMSD2
 70
     0
  9
$DIMTOLJ
 70
     1
  9
$DIMTZIN
 70
     0
  9
$DIMALTZ
 70
     0
  9
$DIMALTTZ
 70
     0
  9
$DIMFIT
 70
     3
  9
$DIMUPT
 70
     0
  9
$DIMUNIT
 70
     2
  9
$DIMDEC
 70
     4
  9
$DIMTDEC
 70
     4
  9
$DIMALTU
 70
     2
  9
$DIMALTTD
 70
     2
  9
$DIMTXSTY
  7
STANDARD
  9
$DIMAUNIT
 70
     0
  9
$LUNITS
 70
     2
  9
$LUPREC
 70
     4
  9
$SKETCHINC
 40
0.1
  9
$FILLETRAD
 40
0.5
  9
$AUNITS
 70
     0
  9
$AUPREC
 70
     0
  9
$MENU
  1
.
  9
$ELEVATION
 40
0.0
  9
$PELEVATION
 40
0.0
  9
$THICKNESS
 40
0.0
  9
$LIMCHECK
 70
     0
  9
$CHAMFERA
 40
0.0
  9
$CHAMFERB
 40
0.0
  9
$CHAMFERC
 40
0.0
  9
$CHAMFERD
 40
0.0
  9
$SKPOLY
 70
     0
  9
$TDCREATE
 40
2457330.522835648
  9
$TDUPDATE
 40
2457330.522835648
  9
$TDINDWG
 40
0.0000000116
  9
$TDUSRTIMER
 40
0.0000000116
  9
$USRTIMER
 70
     1
  9
$ANGBASE
 50
0.0
  9
$ANGDIR
 70
     0
  9
$PDMODE
 70
     0
  9
$PDSIZE
 40
0.0
  9
$PLINEWID
 40
0.0
  9
$COORDS
 70
     1
  9
$SPLFRAME
 70
     0
  9
$SPLINETYPE
 70
     6
  9
$SPLINESEGS
 70
     8
  9
$ATTDIA
 70
     0
  9
$ATTREQ
 70
     1
  9
$HANDLING
 70
     1
  9
$HANDSEED
  5
254
  9
$SURFTAB1
 70
     6
  9
$SURFTAB2
 70
     6
  9
$SURFTYPE
 70
     6
  9
$SURFU
 70
     6
  9
$SURFV
 70
     6
  9
$UCSNAME
  2

  9
$UCSORG
 10
0.0
 20
0.0
 30
0.0
  9
$UCSXDIR
 10
1.0
 20
0.0
 30
0.0
  9
$UCSYDIR
 10
0.0
 20
1.0
 30
0.0
  9
$PUCSNAME
  2

  9
$PUCSORG
 10
0.0
 20
0.0
 30
0.0
  9
$PUCSXDIR
 10
1.0
 20
0.0
 30
0.0
  9
$PUCSYDIR
 10
0.0
 20
1.0
 30
0.0
  9
$USERI1
 70
     0
  9
$USERI2
 70
     0
  9
$USERI3
 70
     0
  9
$USERI4
 70
     0
  9
$USERI5
 70
     0
  9
$USERR1
 40
0.0
  9
$USERR2
 40
0.0
  9
$USERR3
 40
0.0
  9
$USERR4
 40
0.0
  9
$USERR5
 40
0.0
  9
$WORLDVIEW
 70
     1
  9
$SHADEDGE
 70
     3
  9
$SHADEDIF
 70
    70
  9
$TILEMODE
 70
     1
  9
$MAXACTVP
 70
    64
  9
$PINSBASE
 10
0.0
 20
0.0
 30
0.0
  9
$PLIMCHECK
 70
     0
  9
$PEXTMIN
 10
1.000000000000000E+20
 20
1.000000000000000E+20
 30
1.000000000000000E+20
  9
$PEXTMAX
 10
-1.000000000000000E+20
 20
-1.000000000000000E+20
 30
-1.000000000000000E+20
  9
$PLIMMIN
 10
0.0
 20
0.0
  9
$PLIMMAX
 10
12.0
 20
9.0
  9
$UNITMODE
 70
     0
  9
$VISRETAIN
 70
     1
  9
$PLINEGEN
 70
     0
  9
$PSLTSCALE
 70
     1
  9
$TREEDEPTH
 70
  3020
  9
$PICKSTYLE
 70
     1
  9
$CMLSTYLE
  2
STANDARD
  9
$CMLJUST
 70
     0
  9
$CMLSCALE
 40
1.0
  9
$PROXYGRAPHICS
 70
     1
  9
$MEASUREMENT
 70
     0
  0
ENDSEC
  0
SECTION
  2
CLASSES
  0
CLASS
  1
ACDBDICTIONARYWDFLT
  2
AcDbDictionaryWithDefault
  3
ObjectDBX Classes
 90
        0
280
     0
281
     0
  0
CLASS
  1
VISUALSTYLE
  2
AcDbVisualStyle
  3
ObjectDBX Classes
 90
     4095
280
     0
281
     0
  0
CLASS
  1
MATERIAL
  2
AcDbMaterial
  3
ObjectDBX Classes
 90
     1153
280
     0
281
     0
  0
CLASS
  1
SCALE
  2
AcDbScale
  3
ObjectDBX Classes
 90
     1153
280
     0
281
     0
  0
CLASS
  1
SUN
  2
AcDbSun
  3
SCENEOE
 90
     1153
280
     0
281
     0
  0
CLASS
  1
DICTIONARYVAR
  2
AcDbDictionaryVar
  3
ObjectDBX Classes
 90
        0
280
     0
281
     0
  0
CLASS
  1
XRECORD
  2
AcDbXrecord
  3
ObjectDBX Classes
 90
        0
280
     0
281
     0
  0
CLASS
  1
LWPOLYLINE
  2
AcDbPolyline
  3
ObjectDBX Classes
 90
        0
280
     0
281
     1
  0
CLASS
  1
HATCH
  2
AcDbHatch
  3
ObjectDBX Classes
 90
        0
280
     0
281
     1
  0
CLASS
  1
ACDBPLACEHOLDER
  2
AcDbPlaceHolder
  3
ObjectDBX Classes
 90
        0
280
     0
281
     0
  0
CLASS
  1
LAYOUT
  2
AcDbLayout
  3
ObjectDBX Classes
 90
        0
280
     0
281
     0
  0
ENDSEC
  0
SECTION
  2
TABLES
  0
TABLE
  2
VPORT
  5
8
102
{ACAD_XDICTIONARY
360
24A
102
}
330
0
100
AcDbSymbolTable
 70
     1
  0
VPORT
  5
29
330
8
100
AcDbSymbolTableRecord
100
AcDbViewportTableRecord
  2
*ACTIVE
 70
     0
 10
0.0
 20
0.0
 11
1.0
 21
1.0
 12
0.0
 22
0.0
 13
0.0
 23
0.0
 14
0.5
 24
0.5
 15
0.5
 25
0.5
 16
0.0
 26
0.0
 36
1.0
 17
0.0
 27
0.0
 37
-1000.0
 40
63.66716099710714
 41
1.772959183673469
 42
50.0
 43
100.9632184498234
 44
182.1426106362104
 50
0.0
 51
0.0
 71
     0
 72
   100
 73
     1
 74
     3
 75
     0
 76
     0
 77
     0
 78
     0
  0
ENDTAB
  0
TABLE
  2
LTYPE
  5
5
330
0
100
AcDbSymbolTable
 70
     1
  0
LTYPE
  5
14
330
5
100
AcDbSymbolTableRecord
100
AcDbLinetypeTableRecord
  2
BYBLOCK
 70
     0
  3

 72
    65
 73
     0
 40
0.0
  0
LTYPE
  5
15
330
5
100
AcDbSymbolTableRecord
100
AcDbLinetypeTableRecord
  2
BYLAYER
 70
     0
  3

 72
    65
 73
     0
 40
0.0
  0
LTYPE
  5
16
330
5
100
AcDbSymbolTableRecord
100
AcDbLinetypeTableRecord
  2
CONTINUOUS
 70
     0
  3
Solid line
 72
    65
 73
     0
 40
0.0
  0
ENDTAB
  0
TABLE
  2
LAYER
  5
2
330
0
100
AcDbSymbolTable
 70
     3
  0
LAYER
  5
10
330
2
100
AcDbSymbolTableRecord
100
AcDbLayerTableRecord
  2
0
 70
     0
 62
     7
  6
CONTINUOUS
  0
LAYER
  5
6A
330
2
100
AcDbSymbolTableRecord
100
AcDbLayerTableRecord
  2
PROFILEEDGES
 70
     0
 62
     7
  6
CONTINUOUS
  0
LAYER
  5
6B
330
2
100
AcDbSymbolTableRecord
100
AcDbLayerTableRecord
  2
SECTIONCUTEDGES
 70
     0
 62
     7
  6
CONTINUOUS
  0
ENDTAB
  0
TABLE
  2
STYLE
  5
3
330
0
100
AcDbSymbolTable
 70
     1
  0
STYLE
  5
11
330
3
100
AcDbSymbolTableRecord
100
AcDbTextStyleTableRecord
  2
STANDARD
 70
     0
 40
0.0
 41
1.0
 50
0.0
 71
     0
 42
0.2
  3
txt
  4

  0
ENDTAB
  0
TABLE
  2
VIEW
  5
6
330
0
100
AcDbSymbolTable
 70
     0
  0
ENDTAB
  0
TABLE
  2
UCS
  5
7
330
0
100
AcDbSymbolTable
 70
     0
  0
ENDTAB
  0
TABLE
  2
APPID
  5
9
330
0
100
AcDbSymbolTable
 70
     1
  0
APPID
  5
12
330
9
100
AcDbSymbolTableRecord
100
AcDbRegAppTableRecord
  2
ACAD
 70
     0
  0
ENDTAB
  0
TABLE
  2
DIMSTYLE
  5
A
330
0
100
AcDbSymbolTable
 70
     1
  0
DIMSTYLE
105
27
330
A
100
AcDbSymbolTableRecord
100
AcDbDimStyleTableRecord
  2
STANDARD
 70
     0
  3

  4

  5

  6

  7

 40
1.0
 41
0.18
 42
0.0625
 43
0.38
 44
0.18
 45
0.0
 46
0.0
 47
0.0
 48
0.0
140
0.18
141
0.09
142
0.0
143
25.4
144
1.0
145
0.0
146
1.0
147
0.09
 71
     0
 72
     0
 73
     1
 74
     1
 75
     0
 76
     0
 77
     0
 78
     0
170
     0
171
     2
172
     0
173
     0
174
     0
175
     0
176
     0
177
     0
178
     0
270
     2
271
     4
272
     4
273
     2
274
     2
340
11
275
     0
280
     0
281
     0
282
     0
283
     1
284
     0
285
     0
286
     0
287
     3
288
     0
  0
ENDTAB
  0
TABLE
  2
BLOCK_RECORD
  5
1
330
0
100
AcDbSymbolTable
 70
     1
  0
BLOCK_RECORD
  5
1F
330
1
100
AcDbSymbolTableRecord
100
AcDbBlockTableRecord
  2
*MODEL_SPACE
  0
BLOCK_RECORD
  5
1B
330
1
100
AcDbSymbolTableRecord
100
AcDbBlockTableRecord
  2
*PAPER_SPACE
  0
ENDTAB
  0
ENDSEC
  0
SECTION
  2
BLOCKS
  0
BLOCK
  5
20
330
1F
100
AcDbEntity
  8
0
100
AcDbBlockBegin
  2
*MODEL_SPACE
 70
     0
 10
0.0
 20
0.0
 30
0.0
  3
*MODEL_SPACE
  1

  0
ENDBLK
  5
21
330
1F
100
AcDbEntity
  8
0
100
AcDbBlockEnd
  0
BLOCK
  5
1C
330
1B
100
AcDbEntity
 67
     1
  8
0
100
AcDbBlockBegin
  2
*PAPER_SPACE
 70
     0
 10
0.0
 20
0.0
 30
0.0
  3
*PAPER_SPACE
  1

  0
ENDBLK
  5
1D
330
1B
100
AcDbEntity
 67
     1
  8
0
100
AcDbBlockEnd
  0
ENDSEC
  0
SECTION
  2
ENTITIES
  0
LINE
  5
6C
330
1F
100
AcDbEntity
  8
0
100
AcDbLine
 10
-27.40894872569504
 20
-22.91696363915991
 30
0.0
 11
-27.2020436727623
 21
-23.32515662469498
 31
0.0
  0
LINE
  5
6D
330
1F
100
AcDbEntity
  8
0
100
AcDbLine
 10
-20.90204527253006
 20
28.30907516372778
 30
0.0
 11
-21.39822094200392
 21
28.26020612572962
 31
0.0
  0
LINE
  5
6E
330
1F
100
AcDbEntity
  8
0
100
AcDbLine
 10
24.04006200289642
 20
-11.77596979744814
 30
0.0
 11
24.01518002391201
 21
-12.28953103302108
 31
0.0
  0
LINE
  5
6F
330
1F
100
AcDbEntity
  8
0
100
AcDbLine
 10
25.53076436820535
 20
-16.00512995063316
 30
0.0
 11
25.90774512208771
 21
-16.35477229183865
 31
0.0
  0
LINE
  5
70
330
1F
100
AcDbEntity
  8
0
100
AcDbLine
 10
24.62565152623873
 20
-9.816998297325311
 30
0.0
 11
24.40864745945782
 21
-10.28312434311328
 31
0.0
  0
LINE
  5
71
330
1F
100
AcDbEntity
  8
0
100
AcDbLine
 10
-22.30849748364929
 20
22.81525471840558
 30
0.0
 11
-21.75074454197537
 21
23.37300766007948
 31
0.0
  0
LINE
  5
72
330
1F
100
AcDbEntity
  8
0
100
AcDbLine
 10
19.59626032126407
 20
-26.91270170581653
 30
0.0
 11
20.09456982855
 21
-26.89638874161144
 31
0.0
  0
LINE
  5
73
330
1F
100
AcDbEntity
  8
0
100
AcDbLine
 10
-25.68014830268963
 20
-16.14136795529566
 30
0.0
 11
-25.33019239026109
 21
-15.66074461229194
 31
0.0
  0
LINE
  5
74
330
1F
100
AcDbEntity
  8
0
100
AcDbLine
 10
27.20225682352059
 20
22.62879823486513
 30
0.0
 11
27.16316159312207
 21
23.02573877044422
 31
0.0
  0
LINE
  5
75
330
1F
100
AcDbEntity
  8
0
100
AcDbLine
 10
-7.763317054442066
 20
-26.91270170581653
 30
0.0
 11
19.59626032126407
 21
-26.91270170581653
 31
0.0
  0
LINE
  5
76
330
1F
100
AcDbEntity
  8
0
100
AcDbLine
 10
-24.77741520808323
 20
-9.969506306437747
 30
0.0
 11
-25.02833881356821
 21
-9.430520886696009
 31
0.0
  0
LINE
  5
77
330
1F
100
AcDbEntity
  8
0
100
AcDbLine
 10
20.09456982855
 20
-26.89638874161144
 30
0.0
 11
20.59074549802385
 21
-26.84751970361328
 31
0.0
  0
LINE
  5
78
330
1F
100
AcDbEntity
  8
0
100
AcDbLine
 10
22.30919154241268
 20
28.20826984851587
 30
0.0
 11
21.91565783739602
 21
28.27324252617027
 31
0.0
  0
LINE
  5
79
330
1F
100
AcDbEntity
  8
0
100
AcDbLine
 10
-23.07040217101134
 20
22.61110297271742
 30
0.0
 11
-22.30849748364929
 21
22.81525471840558
 31
0.0
  0
LINE
  5
7A
330
1F
100
AcDbEntity
  8
0
100
AcDbLine
 10
21.91565783739602
 20
28.27324252617027
 30
0.0
 11
21.51871730181693
 21
28.3123377565688
 31
0.0
  0
LINE
  5
7B
330
1F
100
AcDbEntity
  8
0
100
AcDbLine
 10
-21.54659279628722
 20
24.13491234744154
 30
0.0
 11
-21.75074454197537
 21
24.8968170348036
 31
0.0
  0
LINE
  5
7C
330
1F
100
AcDbEntity
  8
0
100
AcDbLine
 10
-24.43726098255724
 20
-13.47163848668518
 30
0.0
 11
-24.35121678211966
 21
-12.88336615684567
 31
0.0
  0
LINE
  5
7D
330
1F
100
AcDbEntity
  8
0
100
AcDbLine
 10
-26.44833205226654
 20
25.34452311678196
 30
0.0
 11
-26.73874171536838
 21
24.93925690127694
 31
0.0
  0
LINE
  5
7E
330
1F
100
AcDbEntity
  8
0
100
AcDbLine
 10
23.7867361017554
 20
-20.64066360892717
 30
0.0
 11
23.02483141439334
 21
-20.43651186323902
 31
0.0
  0
LINE
  5
7F
330
1F
100
AcDbEntity
  8
0
100
AcDbLine
 10
-21.75074454197537
 20
24.8968170348036
 30
0.0
 11
-22.11141792077631
 21
25.22969712129036
 31
0.0
  0
LINE
  5
80
330
1F
100
AcDbEntity
  8
0
100
AcDbLine
 10
-24.35121678211966
 20
-12.88336615684567
 30
0.0
 11
-24.32244554307798
 21
-12.28953103302107
 31
0.0
  0
LINE
  5
81
330
1F
100
AcDbEntity
  8
0
100
AcDbLine
 10
-28.00646967465964
 20
21.20465076159819
 30
0.0
 11
-28.02278263886474
 21
20.70634125431227
 31
0.0
  0
LINE
  5
82
330
1F
100
AcDbEntity
  8
0
100
AcDbLine
 10
-24.57977211904557
 20
-14.04883733843436
 30
0.0
 11
-24.43726098255724
 21
-13.47163848668518
 31
0.0
  0
LINE
  5
83
330
1F
100
AcDbEntity
  8
0
100
AcDbLine
 10
-28.02278263886474
 20
20.70634125431227
 30
0.0
 11
-28.02278263886474
 21
-6.653236121393864
 31
0.0
  0
LINE
  5
84
330
1F
100
AcDbEntity
  8
0
100
AcDbLine
 10
-26.73874171536838
 20
24.93925690127694
 30
0.0
 11
-27.00202391042399
 21
24.51586469112257
 31
0.0
  0
LINE
  5
85
330
1F
100
AcDbEntity
  8
0
100
AcDbLine
 10
-24.39005980004732
 20
24.8968170348036
 30
0.0
 11
-24.59421154573547
 21
24.13491234744154
 31
0.0
  0
LINE
  5
86
330
1F
100
AcDbEntity
  8
0
100
AcDbLine
 10
-24.17459112819427
 20
24.67687152651719
 30
0.0
 11
-24.37693933974349
 21
23.9216977201948
 31
0.0
  0
LINE
  5
87
330
1F
100
AcDbEntity
  8
0
100
AcDbLine
 10
-27.95760063666148
 20
21.70082643107205
 30
0.0
 11
-28.00646967465964
 21
21.20465076159819
 31
0.0
  0
LINE
  5
88
330
1F
100
AcDbEntity
  8
0
100
AcDbLine
 10
-22.30849748364928
 20
25.45456997647751
 30
0.0
 11
-23.07040217101134
 21
25.65872172216567
 31
0.0
  0
LINE
  5
89
330
1F
100
AcDbEntity
  8
0
100
AcDbLine
 10
-23.07040217101134
 20
25.65872172216567
 30
0.0
 11
-23.8323068583734
 21
25.45456997647751
 31
0.0
  0
LINE
  5
8A
330
1F
100
AcDbEntity
  8
0
100
AcDbLine
 10
-23.8323068583734
 20
25.45456997647751
 30
0.0
 11
-24.39005980004732
 21
24.8968170348036
 31
0.0
  0
LINE
  5
8B
330
1F
100
AcDbEntity
  8
0
100
AcDbLine
 10
-24.59421154573547
 20
24.13491234744154
 30
0.0
 11
-24.39005980004732
 21
23.37300766007948
 31
0.0
  0
LINE
  5
8C
330
1F
100
AcDbEntity
  8
0
100
AcDbLine
 10
-23.8323068583734
 20
22.81525471840558
 30
0.0
 11
-23.07040217101134
 21
22.61110297271742
 31
0.0
  0
LINE
  5
8D
330
1F
100
AcDbEntity
  8
0
100
AcDbLine
 10
-21.75074454197537
 20
23.37300766007948
 30
0.0
 11
-21.54659279628722
 21
24.13491234744154
 31
0.0
  0
LINE
  5
8E
330
1F
100
AcDbEntity
  8
0
100
AcDbLine
 10
-16.21325998475279
 20
23.27093178723542
 30
0.0
 11
-16.59421232843383
 21
23.37300766007949
 31
0.0
  0
LINE
  5
8F
330
1F
100
AcDbEntity
  8
0
100
AcDbLine
 10
24.33177116805083
 20
-21.76631756230996
 30
0.0
 11
24.12942295650161
 21
-21.01114375598756
 31
0.0
  0
LINE
  5
90
330
1F
100
AcDbEntity
  8
0
100
AcDbLine
 10
24.12942295650161
 20
-21.01114375598756
 30
0.0
 11
23.7867361017554
 21
-20.64066360892717
 31
0.0
  0
LINE
  5
91
330
1F
100
AcDbEntity
  8
0
100
AcDbLine
 10
24.33177116805083
 20
-4.397320016894923
 30
0.0
 11
24.12942295650161
 21
-3.64214621057253
 31
0.0
  0
LINE
  5
92
330
1F
100
AcDbEntity
  8
0
100
AcDbLine
 10
24.12942295650161
 20
-3.64214621057253
 30
0.0
 11
23.57659736172844
 21
-3.089320615799362
 31
0.0
  0
LINE
  5
93
330
1F
100
AcDbEntity
  8
0
100
AcDbLine
 10
21.70966624818036
 20
-22.71773346250222
 30
0.0
 11
22.06624974908365
 21
-23.07431696340552
 31
0.0
  0
LINE
  5
94
330
1F
100
AcDbEntity
  8
0
100
AcDbLine
 10
22.06624974908365
 20
-23.07431696340552
 30
0.0
 11
22.82142355540605
 21
-23.27666517495474
 31
0.0
  0
LINE
  5
95
330
1F
100
AcDbEntity
  8
0
100
AcDbLine
 10
23.57659736172844
 20
-3.089320615799362
 30
0.0
 11
23.01763858392126
 21
-2.939548062683639
 31
0.0
  0
LINE
  5
96
330
1F
100
AcDbEntity
  8
0
100
AcDbLine
 10
22.82142355540605
 20
-23.27666517495474
 30
0.0
 11
23.57659736172844
 21
-23.07431696340552
 31
0.0
  0
LINE
  5
97
330
1F
100
AcDbEntity
  8
0
100
AcDbLine
 10
23.57659736172844
 20
-23.07431696340552
 30
0.0
 11
24.12942295650161
 21
-22.52149136863235
 31
0.0
  0
LINE
  5
98
330
1F
100
AcDbEntity
  8
0
100
AcDbLine
 10
24.12942295650161
 20
-22.52149136863235
 30
0.0
 11
24.33177116805083
 21
-21.76631756230996
 31
0.0
  0
LINE
  5
99
330
1F
100
AcDbEntity
  8
0
100
AcDbLine
 10
24.54864078911746
 20
-21.96032123796315
 30
0.0
 11
24.34448904342931
 21
-21.19841655060108
 31
0.0
  0
LINE
  5
9A
330
1F
100
AcDbEntity
  8
0
100
AcDbLine
 10
23.02483141439334
 20
-20.43651186323902
 30
0.0
 11
22.26292672703128
 21
-20.64066360892717
 31
0.0
  0
LINE
  5
9B
330
1F
100
AcDbEntity
  8
0
100
AcDbLine
 10
22.26292672703128
 20
-20.64066360892717
 30
0.0
 11
21.70517378535737
 21
-21.19841655060108
 31
0.0
  0
LINE
  5
9C
330
1F
100
AcDbEntity
  8
0
100
AcDbLine
 10
21.70517378535737
 20
-21.19841655060108
 30
0.0
 11
21.50102203966922
 21
-21.96032123796315
 31
0.0
  0
LINE
  5
9D
330
1F
100
AcDbEntity
  8
0
100
AcDbLine
 10
21.50102203966922
 20
-21.96032123796315
 30
0.0
 11
21.70966624818036
 21
-22.71773346250222
 31
0.0
  0
LINE
  5
9E
330
1F
100
AcDbEntity
  8
0
100
AcDbLine
 10
22.26292672703128
 20
-23.27997886699911
 30
0.0
 11
23.02483141439334
 21
-23.48413061268726
 31
0.0
  0
LINE
  5
9F
330
1F
100
AcDbEntity
  8
0
100
AcDbLine
 10
23.02483141439334
 20
-23.48413061268726
 30
0.0
 11
23.7867361017554
 21
-23.27997886699911
 31
0.0
  0
LINE
  5
A0
330
1F
100
AcDbEntity
  8
0
100
AcDbLine
 10
23.7867361017554
 20
-23.27997886699911
 30
0.0
 11
24.34448904342931
 21
-22.72222592532521
 31
0.0
  0
LINE
  5
A1
330
1F
100
AcDbEntity
  8
0
100
AcDbLine
 10
24.34448904342931
 20
-22.72222592532521
 30
0.0
 11
24.54864078911746
 21
-21.96032123796315
 31
0.0
  0
LINE
  5
A2
330
1F
100
AcDbEntity
  8
0
100
AcDbLine
 10
-15.93438351391584
 20
22.99205531639846
 30
0.0
 11
-16.21325998475279
 21
23.27093178723542
 31
0.0
  0
LINE
  5
A3
330
1F
100
AcDbEntity
  8
0
100
AcDbLine
 10
22.26246477759887
 20
-5.757895076423987
 30
0.0
 11
22.82142355540605
 21
-5.90766762953971
 31
0.0
  0
LINE
  5
A4
330
1F
100
AcDbEntity
  8
0
100
AcDbLine
 10
22.82142355540605
 20
-5.90766762953971
 30
0.0
 11
23.57659736172844
 21
-5.705319417990493
 31
0.0
  0
LINE
  5
A5
330
1F
100
AcDbEntity
  8
0
100
AcDbLine
 10
23.57659736172844
 20
-5.705319417990493
 30
0.0
 11
24.12942295650161
 21
-5.152493823217316
 31
0.0
  0
LINE
  5
A6
330
1F
100
AcDbEntity
  8
0
100
AcDbLine
 10
24.12942295650161
 20
-5.152493823217316
 30
0.0
 11
24.33177116805083
 21
-4.397320016894923
 31
0.0
  0
LINE
  5
A7
330
1F
100
AcDbEntity
  8
0
100
AcDbLine
 10
24.54864078911746
 20
-4.436513428635738
 30
0.0
 11
24.34448904342931
 21
-3.674608741273677
 31
0.0
  0
LINE
  5
A8
330
1F
100
AcDbEntity
  8
0
100
AcDbLine
 10
24.34448904342931
 20
-3.674608741273677
 30
0.0
 11
23.7867361017554
 21
-3.11685579959977
 31
0.0
  0
LINE
  5
A9
330
1F
100
AcDbEntity
  8
0
100
AcDbLine
 10
23.01763858392126
 20
-2.939548062683639
 30
0.0
 11
22.26292672703128
 21
-3.11685579959977
 31
0.0
  0
LINE
  5
AA
330
1F
100
AcDbEntity
  8
0
100
AcDbLine
 10
22.26292672703128
 20
-3.11685579959977
 30
0.0
 11
21.70517378535737
 21
-3.674608741273677
 31
0.0
  0
LINE
  5
AB
330
1F
100
AcDbEntity
  8
0
100
AcDbLine
 10
21.70517378535737
 20
-3.674608741273677
 30
0.0
 11
21.50102203966922
 21
-4.436513428635738
 31
0.0
  0
LINE
  5
AC
330
1F
100
AcDbEntity
  8
0
100
AcDbLine
 10
21.50102203966922
 20
-4.436513428635738
 30
0.0
 11
21.70517378535737
 21
-5.1984181159978
 31
0.0
  0
LINE
  5
AD
330
1F
100
AcDbEntity
  8
0
100
AcDbLine
 10
21.70517378535737
 20
-5.1984181159978
 30
0.0
 11
22.26246477759887
 21
-5.757895076423987
 31
0.0
  0
LINE
  5
AE
330
1F
100
AcDbEntity
  8
0
100
AcDbLine
 10
23.02483141439334
 20
-5.960322803359861
 30
0.0
 11
23.7867361017554
 21
-5.756171057671715
 31
0.0
  0
LINE
  5
AF
330
1F
100
AcDbEntity
  8
0
100
AcDbLine
 10
23.7867361017554
 20
-5.756171057671715
 30
0.0
 11
24.34448904342931
 21
-5.1984181159978
 31
0.0
  0
LINE
  5
B0
330
1F
100
AcDbEntity
  8
0
100
AcDbLine
 10
24.34448904342931
 20
-5.1984181159978
 30
0.0
 11
24.54864078911746
 21
-4.436513428635738
 31
0.0
  0
LINE
  5
B1
330
1F
100
AcDbEntity
  8
0
100
AcDbLine
 10
-16.59421232843383
 20
23.37300766007949
 30
0.0
 11
-16.97516467211486
 21
23.27093178723542
 31
0.0
  0
LINE
  5
B2
330
1F
100
AcDbEntity
  8
0
100
AcDbLine
 10
-16.97516467211486
 20
23.27093178723542
 30
0.0
 11
-17.25404114295181
 21
22.99205531639846
 31
0.0
  0
LINE
  5
B3
330
1F
100
AcDbEntity
  8
0
100
AcDbLine
 10
-17.25404114295181
 20
22.99205531639846
 30
0.0
 11
-17.35611701579589
 21
22.61110297271743
 31
0.0
  0
LINE
  5
B4
330
1F
100
AcDbEntity
  8
0
100
AcDbLine
 10
-17.35611701579589
 20
22.61110297271743
 30
0.0
 11
-17.25404114295181
 21
22.2301506290364
 31
0.0
  0
LINE
  5
B5
330
1F
100
AcDbEntity
  8
0
100
AcDbLine
 10
-16.97516467211486
 20
21.95127415819944
 30
0.0
 11
-16.59421232843383
 21
21.84919828535537
 31
0.0
  0
LINE
  5
B6
330
1F
100
AcDbEntity
  8
0
100
AcDbLine
 10
-16.59421232843383
 20
21.84919828535537
 30
0.0
 11
-16.21325998475279
 21
21.95127415819944
 31
0.0
  0
LINE
  5
B7
330
1F
100
AcDbEntity
  8
0
100
AcDbLine
 10
-16.21325998475279
 20
21.95127415819944
 30
0.0
 11
-15.93438351391584
 21
22.2301506290364
 31
0.0
  0
LINE
  5
B8
330
1F
100
AcDbEntity
  8
0
100
AcDbLine
 10
-15.93438351391584
 20
22.2301506290364
 30
0.0
 11
-15.83230764107176
 21
22.61110297271743
 31
0.0
  0
LINE
  5
B9
330
1F
100
AcDbEntity
  8
0
100
AcDbLine
 10
-15.91156202596648
 20
22.90688436386711
 30
0.0
 11
-16.07002747019717
 21
23.0653498080978
 31
0.0
  0
LINE
  5
BA
330
1F
100
AcDbEntity
  8
0
100
AcDbLine
 10
-16.82520127651956
 20
23.0653498080978
 30
0.0
 11
-17.10161407390614
 21
22.78893701071122
 31
0.0
  0
LINE
  5
BB
330
1F
100
AcDbEntity
  8
0
100
AcDbLine
 10
-16.07002747019717
 20
23.0653498080978
 30
0.0
 11
-16.44761437335836
 21
23.16652391387241
 31
0.0
  0
LINE
  5
BC
330
1F
100
AcDbEntity
  8
0
100
AcDbLine
 10
-16.44761437335836
 20
23.16652391387241
 30
0.0
 11
-16.82520127651956
 21
23.0653498080978
 31
0.0
  0
LINE
  5
BD
330
1F
100
AcDbEntity
  8
0
100
AcDbLine
 10
-17.10161407390614
 20
22.78893701071122
 30
0.0
 11
-17.20278817968076
 21
22.41135010755002
 31
0.0
  0
LINE
  5
BE
330
1F
100
AcDbEntity
  8
0
100
AcDbLine
 10
-17.20278817968076
 20
22.41135010755002
 30
0.0
 11
-17.11770468081585
 21
22.09381416690043
 31
0.0
  0
LINE
  5
BF
330
1F
100
AcDbEntity
  8
0
100
AcDbLine
 10
-27.76316991218126
 20
22.67829569073409
 30
0.0
 11
-27.87638478959347
 21
22.19274356234288
 31
0.0
  0
LINE
  5
C0
330
1F
100
AcDbEntity
  8
0
100
AcDbLine
 10
-27.61844080791098
 20
23.15540360748859
 30
0.0
 11
-27.76316991218126
 21
22.67829569073409
 31
0.0
  0
LINE
  5
C1
330
1F
100
AcDbEntity
  8
0
100
AcDbLine
 10
-22.8665917270987
 20
25.43204533283959
 30
0.0
 11
-23.6217655334211
 21
25.22969712129036
 31
0.0
  0
LINE
  5
C2
330
1F
100
AcDbEntity
  8
0
100
AcDbLine
 10
-26.07492831323097
 20
-16.585908934015
 30
0.0
 11
-25.68014830268963
 21
-16.14136795529566
 31
0.0
  0
LINE
  5
C3
330
1F
100
AcDbEntity
  8
0
100
AcDbLine
 10
-21.39822094200392
 20
28.26020612572962
 30
0.0
 11
-21.89013807327475
 21
28.17899027866161
 31
0.0
  0
LINE
  5
C4
330
1F
100
AcDbEntity
  8
0
100
AcDbLine
 10
-27.00202391042399
 20
24.51586469112257
 30
0.0
 11
-27.23705122265431
 21
24.0761595167631
 31
0.0
  0
LINE
  5
C5
330
1F
100
AcDbEntity
  8
0
100
AcDbLine
 10
21.12006969598819
 20
28.32538812793288
 30
0.0
 11
-8.525221741804128
 21
28.32538812793288
 31
0.0
  0
LINE
  5
C6
330
1F
100
AcDbEntity
  8
0
100
AcDbLine
 10
11.4627778024364
 20
14.23015141173475
 30
0.0
 11
11.42962323743783
 21
14.35388593281225
 31
0.0
  0
LINE
  5
C7
330
1F
100
AcDbEntity
  8
0
100
AcDbLine
 10
24.50640221355992
 20
27.29815538913579
 30
0.0
 11
24.16768844543643
 21
27.50878114518027
 31
0.0
  0
LINE
  5
C8
330
1F
100
AcDbEntity
  8
0
100
AcDbLine
 10
-24.77741520808322
 20
-14.60955575960439
 30
0.0
 11
-24.57977211904557
 21
-14.04883733843436
 31
0.0
  0
LINE
  5
C9
330
1F
100
AcDbEntity
  8
0
100
AcDbLine
 10
20.59074549802385
 20
-26.84751970361328
 30
0.0
 11
21.08266262929469
 21
-26.76630385654527
 31
0.0
  0
LINE
  5
CA
330
1F
100
AcDbEntity
  8
0
100
AcDbLine
 10
24.83061518596395
 20
27.06582765865431
 30
0.0
 11
24.50640221355992
 21
27.29815538913579
 31
0.0
  0
LINE
  5
CB
330
1F
100
AcDbEntity
  8
0
100
AcDbLine
 10
23.4526161031463
 20
27.86141580006214
 30
0.0
 11
23.07931957852925
 21
28.00191466316987
 31
0.0
  0
LINE
  5
CC
330
1F
100
AcDbEntity
  8
0
100
AcDbLine
 10
27.21530719488467
 20
-19.29365483219592
 30
0.0
 11
27.21530719488467
 21
-17.16392125728623
 31
0.0
  0
LINE
  5
CD
330
1F
100
AcDbEntity
  8
0
100
AcDbLine
 10
25.13893903292659
 20
26.81279281674537
 30
0.0
 11
24.83061518596395
 21
27.06582765865431
 31
0.0
  0
LINE
  5
CE
330
1F
100
AcDbEntity
  8
0
100
AcDbLine
 10
25.43005346440042
 20
26.54013439744863
 30
0.0
 11
25.13893903292659
 21
26.81279281674537
 31
0.0
  0
LINE
  5
CF
330
1F
100
AcDbEntity
  8
0
100
AcDbLine
 10
27.19899423067958
 20
-19.79196433948184
 30
0.0
 11
27.21530719488467
 21
-19.29365483219592
 31
0.0
  0
LINE
  5
D0
330
1F
100
AcDbEntity
  8
0
100
AcDbLine
 10
27.15012519268141
 20
-20.2881400089557
 30
0.0
 11
27.19899423067958
 21
-19.79196433948184
 31
0.0
  0
LINE
  5
D1
330
1F
100
AcDbEntity
  8
0
100
AcDbLine
 10
25.70271188369716
 20
26.2490199659748
 30
0.0
 11
25.43005346440042
 21
26.54013439744863
 31
0.0
  0
LINE
  5
D2
330
1F
100
AcDbEntity
  8
0
100
AcDbLine
 10
11.00099428312496
 20
14.10641689065725
 30
0.0
 11
11.0915742392039
 21
14.01583693457832
 31
0.0
  0
LINE
  5
D3
330
1F
100
AcDbEntity
  8
0
100
AcDbLine
 10
27.06890934561341
 20
-20.78005714022654
 30
0.0
 11
27.15012519268141
 21
-20.2881400089557
 31
0.0
  0
LINE
  5
D4
330
1F
100
AcDbEntity
  8
0
100
AcDbLine
 10
26.18807445608758
 20
25.61648314660813
 30
0.0
 11
25.9557467256061
 21
25.94069611901216
 31
0.0
  0
LINE
  5
D5
330
1F
100
AcDbEntity
  8
0
100
AcDbLine
 10
26.9556944682012
 20
-21.26560926861775
 30
0.0
 11
27.06890934561341
 21
-20.78005714022654
 31
0.0
  0
LINE
  5
D6
330
1F
100
AcDbEntity
  8
0
100
AcDbLine
 10
26.81096536393091
 20
-21.74271718537225
 30
0.0
 11
26.9556944682012
 21
-21.26560926861775
 31
0.0
  0
LINE
  5
D7
330
1F
100
AcDbEntity
  8
0
100
AcDbLine
 10
27.16316159312207
 20
23.02573877044422
 30
0.0
 11
27.09818891546767
 21
23.41927247546088
 31
0.0
  0
LINE
  5
D8
330
1F
100
AcDbEntity
  8
0
100
AcDbLine
 10
27.00761701353789
 20
23.80771417817386
 30
0.0
 11
26.89183373012166
 21
24.18940051157745
 31
0.0
  0
LINE
  5
D9
330
1F
100
AcDbEntity
  8
0
100
AcDbLine
 10
25.9557467256061
 20
25.94069611901216
 30
0.0
 11
25.70271188369716
 21
26.2490199659748
 31
0.0
  0
LINE
  5
DA
330
1F
100
AcDbEntity
  8
0
100
AcDbLine
 10
23.07931957852925
 20
28.00191466316987
 30
0.0
 11
22.69763324512565
 21
28.11769794658609
 31
0.0
  0
LINE
  5
DB
330
1F
100
AcDbEntity
  8
0
100
AcDbLine
 10
26.39870021213207
 20
25.27776937848463
 30
0.0
 11
26.18807445608758
 21
25.61648314660813
 31
0.0
  0
LINE
  5
DC
330
1F
100
AcDbEntity
  8
0
100
AcDbLine
 10
27.09818891546767
 20
23.41927247546088
 30
0.0
 11
27.00761701353789
 21
23.80771417817386
 31
0.0
  0
LINE
  5
DD
330
1F
100
AcDbEntity
  8
0
100
AcDbLine
 10
26.58672206191632
 20
24.92600523899706
 30
0.0
 11
26.39870021213207
 21
25.27776937848463
 31
0.0
  0
LINE
  5
DE
330
1F
100
AcDbEntity
  8
0
100
AcDbLine
 10
22.04532267444041
 20
-26.50835987486277
 30
0.0
 11
22.51194333021171
 21
-26.33273629597812
 31
0.0
  0
LINE
  5
DF
330
1F
100
AcDbEntity
  8
0
100
AcDbLine
 10
-26.13203849988036
 20
25.72992792548528
 30
0.0
 11
-26.44833205226654
 21
25.34452311678196
 31
0.0
  0
LINE
  5
E0
330
1F
100
AcDbEntity
  8
0
100
AcDbLine
 10
21.5682147576859
 20
-26.65308897913306
 30
0.0
 11
22.04532267444041
 21
-26.50835987486277
 31
0.0
  0
LINE
  5
E1
330
1F
100
AcDbEntity
  8
0
100
AcDbLine
 10
-24.32244554307798
 20
-12.28953103302107
 30
0.0
 11
-24.35121678211966
 21
-11.69569590919648
 31
0.0
  0
LINE
  5
E2
330
1F
100
AcDbEntity
  8
0
100
AcDbLine
 10
-25.04191762771384
 20
26.75093754133467
 30
0.0
 11
-25.42732243641714
 21
26.43464398894849
 31
0.0
  0
LINE
  5
E3
330
1F
100
AcDbEntity
  8
0
100
AcDbLine
 10
26.89183373012166
 20
24.18940051157745
 30
0.0
 11
26.75133486701394
 21
24.5626970361945
 31
0.0
  0
LINE
  5
E4
330
1F
100
AcDbEntity
  8
0
100
AcDbLine
 10
-24.21325920205444
 20
27.30462939949212
 30
0.0
 11
-24.63665141220881
 21
27.04134720443651
 31
0.0
  0
LINE
  5
E5
330
1F
100
AcDbEntity
  8
0
100
AcDbLine
 10
26.42957577867424
 20
-22.66347309464676
 30
0.0
 11
26.63534178504625
 21
-22.20933784114356
 31
0.0
  0
LINE
  5
E6
330
1F
100
AcDbEntity
  8
0
100
AcDbLine
 10
-26.51083429124249
 20
-16.99020327829596
 30
0.0
 11
-26.07492831323097
 21
-16.585908934015
 31
0.0
  0
LINE
  5
E7
330
1F
100
AcDbEntity
  8
0
100
AcDbLine
 10
-21.89013807327475
 20
28.17899027866161
 30
0.0
 11
-22.37569020166596
 21
28.06577540124939
 31
0.0
  0
LINE
  5
E8
330
1F
100
AcDbEntity
  8
0
100
AcDbLine
 10
-23.6217655334211
 20
25.22969712129036
 30
0.0
 11
-24.17459112819427
 21
24.67687152651719
 31
0.0
  0
LINE
  5
E9
330
1F
100
AcDbEntity
  8
0
100
AcDbLine
 10
-28.02278263886474
 20
-17.9258259446483
 30
0.0
 11
-27.48934362592619
 21
-17.66331552680132
 31
0.0
  0
LINE
  5
EA
330
1F
100
AcDbEntity
  8
0
100
AcDbLine
 10
26.63534178504625
 20
-22.20933784114356
 30
0.0
 11
26.81096536393091
 21
-21.74271718537225
 31
0.0
  0
LINE
  5
EB
330
1F
100
AcDbEntity
  8
0
100
AcDbLine
 10
26.75133486701394
 20
24.5626970361945
 30
0.0
 11
26.58672206191632
 21
24.92600523899706
 31
0.0
  0
LINE
  5
EC
330
1F
100
AcDbEntity
  8
0
100
AcDbLine
 10
21.08266262929469
 20
-26.76630385654527
 30
0.0
 11
21.5682147576859
 21
-26.65308897913306
 31
0.0
  0
LINE
  5
ED
330
1F
100
AcDbEntity
  8
0
100
AcDbLine
 10
11.2153087602814
 20
13.98268236957975
 30
0.0
 11
11.3390432813589
 21
14.01583693457832
 31
0.0
  0
LINE
  5
EE
330
1F
100
AcDbEntity
  8
0
100
AcDbLine
 10
-25.42732243641714
 20
26.43464398894849
 30
0.0
 11
-25.79121547575943
 21
26.09382096482756
 31
0.0
  0
LINE
  5
EF
330
1F
100
AcDbEntity
  8
0
100
AcDbLine
 10
-22.85279811842047
 20
27.92104629697911
 30
0.0
 11
-23.31941877419177
 21
27.74542271809446
 31
0.0
  0
LINE
  5
F0
330
1F
100
AcDbEntity
  8
0
100
AcDbLine
 10
-23.77355402769497
 20
27.53965671172244
 30
0.0
 11
-24.21325920205444
 21
27.30462939949212
 31
0.0
  0
LINE
  5
F1
330
1F
100
AcDbEntity
  8
0
100
AcDbLine
 10
-25.0283388135682
 20
-15.14854117934613
 30
0.0
 11
-24.77741520808322
 21
-14.60955575960439
 31
0.0
  0
LINE
  5
F2
330
1F
100
AcDbEntity
  8
0
100
AcDbLine
 10
21.51871730181693
 20
28.3123377565688
 30
0.0
 11
21.12006969598819
 21
28.32538812793288
 31
0.0
  0
LINE
  5
F3
330
1F
100
AcDbEntity
  8
0
100
AcDbLine
 10
24.16768844543643
 20
27.50878114518027
 30
0.0
 11
23.81592430594885
 21
27.69680299496453
 31
0.0
  0
LINE
  5
F4
330
1F
100
AcDbEntity
  8
0
100
AcDbLine
 10
22.69763324512565
 20
28.11769794658609
 30
0.0
 11
22.30919154241268
 21
28.20826984851587
 31
0.0
  0
LINE
  5
F5
330
1F
100
AcDbEntity
  8
0
100
AcDbLine
 10
23.81592430594885
 20
27.69680299496453
 30
0.0
 11
23.4526161031463
 21
27.86141580006214
 31
0.0
  0
LINE
  5
F6
330
1F
100
AcDbEntity
  8
0
100
AcDbLine
 10
-25.79121547575943
 20
26.09382096482756
 30
0.0
 11
-26.13203849988036
 21
25.72992792548528
 31
0.0
  0
LINE
  5
F7
330
1F
100
AcDbEntity
  8
0
100
AcDbLine
 10
25.64085660828648
 20
-23.93183669466563
 30
0.0
 11
25.93126627138831
 21
-23.5265704791606
 31
0.0
  0
LINE
  5
F8
330
1F
100
AcDbEntity
  8
0
100
AcDbLine
 10
11.3390432813589
 20
14.44446588889119
 30
0.0
 11
11.2153087602814
 21
14.47762045388975
 31
0.0
  0
LINE
  5
F9
330
1F
100
AcDbEntity
  8
0
100
AcDbLine
 10
25.32456305590029
 20
-24.31724150336893
 30
0.0
 11
25.64085660828648
 21
-23.93183669466563
 31
0.0
  0
LINE
  5
FA
330
1F
100
AcDbEntity
  8
0
100
AcDbLine
 10
-20.40373576524413
 20
28.32538812793288
 30
0.0
 11
-20.90204527253006
 21
28.30907516372778
 31
0.0
  0
LINE
  5
FB
330
1F
100
AcDbEntity
  8
0
100
AcDbLine
 10
-27.44281722902632
 20
23.62202426325991
 30
0.0
 11
-27.61844080791098
 21
23.15540360748859
 31
0.0
  0
LINE
  5
FC
330
1F
100
AcDbEntity
  8
0
100
AcDbLine
 10
22.51194333021171
 20
-26.33273629597812
 30
0.0
 11
22.9660785837149
 21
-26.1269702896061
 31
0.0
  0
LINE
  5
FD
330
1F
100
AcDbEntity
  8
0
100
AcDbLine
 10
24.23444218373378
 20
-25.33825111921833
 30
0.0
 11
24.61984699243708
 21
-25.02195756683215
 31
0.0
  0
LINE
  5
FE
330
1F
100
AcDbEntity
  8
0
100
AcDbLine
 10
-25.33019239026109
 20
-15.66074461229194
 30
0.0
 11
-25.0283388135682
 21
-15.14854117934613
 31
0.0
  0
LINE
  5
FF
330
1F
100
AcDbEntity
  8
0
100
AcDbLine
 10
-7.763317054442066
 20
-26.91270170581653
 30
0.0
 11
-8.025827472289034
 21
-26.37926269287799
 31
0.0
  0
LINE
  5
100
330
1F
100
AcDbEntity
  8
0
100
AcDbLine
 10
-8.025827472289034
 20
-26.37926269287799
 30
0.0
 11
-8.338679267812058
 21
-25.87370192252315
 31
0.0
  0
LINE
  5
101
330
1F
100
AcDbEntity
  8
0
100
AcDbLine
 10
10.96783971812639
 20
14.23015141173475
 30
0.0
 11
11.00099428312496
 21
14.10641689065725
 31
0.0
  0
LINE
  5
102
330
1F
100
AcDbEntity
  8
0
100
AcDbLine
 10
24.98374003177937
 20
-24.68113454271122
 30
0.0
 11
25.32456305590029
 21
-24.31724150336893
 31
0.0
  0
LINE
  5
103
330
1F
100
AcDbEntity
  8
0
100
AcDbLine
 10
22.9660785837149
 20
-26.1269702896061
 30
0.0
 11
23.40578375807437
 21
-25.89194297737578
 31
0.0
  0
LINE
  5
104
330
1F
100
AcDbEntity
  8
0
100
AcDbLine
 10
24.61984699243708
 20
-25.02195756683215
 30
0.0
 11
24.98374003177937
 21
-24.68113454271122
 31
0.0
  0
LINE
  5
105
330
1F
100
AcDbEntity
  8
0
100
AcDbLine
 10
-27.23705122265431
 20
24.0761595167631
 30
0.0
 11
-27.44281722902632
 21
23.62202426325991
 31
0.0
  0
LINE
  5
106
330
1F
100
AcDbEntity
  8
0
100
AcDbLine
 10
-24.63665141220881
 20
27.04134720443651
 30
0.0
 11
-25.04191762771384
 21
26.75093754133467
 31
0.0
  0
LINE
  5
107
330
1F
100
AcDbEntity
  8
0
100
AcDbLine
 10
-25.68014830268964
 20
-8.437694110746483
 30
0.0
 11
-26.07492831323097
 21
-7.99315313202715
 31
0.0
  0
LINE
  5
108
330
1F
100
AcDbEntity
  8
0
100
AcDbLine
 10
-26.07492831323097
 20
-7.99315313202715
 30
0.0
 11
-26.5108342912425
 21
-7.588858787746189
 31
0.0
  0
LINE
  5
109
330
1F
100
AcDbEntity
  8
0
100
AcDbLine
 10
-26.5108342912425
 20
-7.588858787746189
 30
0.0
 11
-26.98378285557135
 21
-7.22859833476385
 31
0.0
  0
LINE
  5
10A
330
1F
100
AcDbEntity
  8
0
100
AcDbLine
 10
26.19454846644393
 20
-23.10317826900623
 30
0.0
 11
26.42957577867424
 21
-22.66347309464676
 31
0.0
  0
LINE
  5
10B
330
1F
100
AcDbEntity
  8
0
100
AcDbLine
 10
-24.43726098255724
 20
-11.10742357935696
 30
0.0
 11
-24.57977211904557
 21
-10.53022472760778
 31
0.0
  0
LINE
  5
10C
330
1F
100
AcDbEntity
  8
0
100
AcDbLine
 10
-24.57977211904557
 20
-10.53022472760778
 30
0.0
 11
-24.77741520808323
 21
-9.969506306437747
 31
0.0
  0
LINE
  5
10D
330
1F
100
AcDbEntity
  8
0
100
AcDbLine
 10
-8.338679267812058
 20
-25.87370192252315
 30
0.0
 11
-8.698939720794392
 21
-25.4007533581943
 31
0.0
  0
LINE
  5
10E
330
1F
100
AcDbEntity
  8
0
100
AcDbLine
 10
-24.37693933974349
 20
23.9216977201948
 30
0.0
 11
-24.17459112819427
 21
23.16652391387241
 31
0.0
  0
LINE
  5
10F
330
1F
100
AcDbEntity
  8
0
100
AcDbLine
 10
-8.698939720794392
 20
-25.4007533581943
 30
0.0
 11
-9.103234065075355
 21
-24.96484738018277
 31
0.0
  0
LINE
  5
110
330
1F
100
AcDbEntity
  8
0
100
AcDbLine
 10
-9.103234065075355
 20
-24.96484738018277
 30
0.0
 11
-9.547775043794694
 21
-24.57006736964143
 31
0.0
  0
LINE
  5
111
330
1F
100
AcDbEntity
  8
0
100
AcDbLine
 10
-26.98378285557135
 20
-7.22859833476385
 30
0.0
 11
-27.4893436259262
 21
-6.915746539240826
 31
0.0
  0
LINE
  5
112
330
1F
100
AcDbEntity
  8
0
100
AcDbLine
 10
-24.17459112819427
 20
23.16652391387241
 30
0.0
 11
-23.8323068583734
 21
22.81525471840558
 31
0.0
  0
LINE
  5
113
330
1F
100
AcDbEntity
  8
0
100
AcDbLine
 10
-27.4893436259262
 20
-6.915746539240826
 30
0.0
 11
-28.02278263886474
 21
-6.653236121393864
 31
0.0
  0
LINE
  5
114
330
1F
100
AcDbEntity
  8
0
100
AcDbLine
 10
23.82917596822875
 20
-25.62866078232017
 30
0.0
 11
24.23444218373378
 21
-25.33825111921833
 31
0.0
  0
LINE
  5
115
330
1F
100
AcDbEntity
  8
0
100
AcDbLine
 10
-25.02833881356821
 20
-9.430520886696009
 30
0.0
 11
-25.3301923902611
 21
-8.918317453750202
 31
0.0
  0
LINE
  5
116
330
1F
100
AcDbEntity
  8
0
100
AcDbLine
 10
-25.3301923902611
 20
-8.918317453750202
 30
0.0
 11
-25.68014830268964
 21
-8.437694110746483
 31
0.0
  0
LINE
  5
117
330
1F
100
AcDbEntity
  8
0
100
AcDbLine
 10
11.3390432813589
 20
14.01583693457832
 30
0.0
 11
11.42962323743783
 21
14.10641689065725
 31
0.0
  0
LINE
  5
118
330
1F
100
AcDbEntity
  8
0
100
AcDbLine
 10
25.93126627138831
 20
-23.5265704791606
 30
0.0
 11
26.19454846644393
 21
-23.10317826900623
 31
0.0
  0
LINE
  5
119
330
1F
100
AcDbEntity
  8
0
100
AcDbLine
 10
27.21530719488467
 20
22.23015062903639
 30
0.0
 11
27.20225682352059
 21
22.62879823486513
 31
0.0
  0
LINE
  5
11A
330
1F
100
AcDbEntity
  8
0
100
AcDbLine
 10
-27.87638478959347
 20
22.19274356234288
 30
0.0
 11
-27.95760063666148
 21
21.70082643107205
 31
0.0
  0
LINE
  5
11B
330
1F
100
AcDbEntity
  8
0
100
AcDbLine
 10
23.40578375807437
 20
-25.89194297737578
 30
0.0
 11
23.82917596822875
 21
-25.62866078232017
 31
0.0
  0
LINE
  5
11C
330
1F
100
AcDbEntity
  8
0
100
AcDbLine
 10
-22.37569020166596
 20
28.06577540124939
 30
0.0
 11
-22.85279811842047
 21
27.92104629697911
 31
0.0
  0
LINE
  5
11D
330
1F
100
AcDbEntity
  8
0
100
AcDbLine
 10
-23.31941877419177
 20
27.74542271809446
 30
0.0
 11
-23.77355402769497
 21
27.53965671172244
 31
0.0
  0
LINE
  5
11E
330
1F
100
AcDbEntity
  8
0
100
AcDbLine
 10
-24.35121678211966
 20
-11.69569590919648
 30
0.0
 11
-24.43726098255724
 21
-11.10742357935696
 31
0.0
  0
LINE
  5
11F
330
1F
100
AcDbEntity
  8
0
100
AcDbLine
 10
11.42962323743783
 20
14.35388593281225
 30
0.0
 11
11.3390432813589
 21
14.44446588889119
 31
0.0
  0
LINE
  5
120
330
1F
100
AcDbEntity
  8
0
100
AcDbLine
 10
6.262928292428004
 20
24.72001643681072
 30
0.0
 11
6.820681234101912
 21
25.27776937848463
 31
0.0
  0
LINE
  5
121
330
1F
100
AcDbEntity
  8
0
100
AcDbLine
 10
11.0915742392039
 20
14.44446588889119
 30
0.0
 11
11.00099428312496
 21
14.35388593281225
 31
0.0
  0
LINE
  5
122
330
1F
100
AcDbEntity
  8
0
100
AcDbLine
 10
4.739118917703881
 20
24.72001643681072
 30
0.0
 11
5.501023605065942
 21
24.51586469112257
 31
0.0
  0
LINE
  5
123
330
1F
100
AcDbEntity
  8
0
100
AcDbLine
 10
5.501023605065942
 20
24.51586469112257
 30
0.0
 11
6.262928292428004
 21
24.72001643681072
 31
0.0
  0
LINE
  5
124
330
1F
100
AcDbEntity
  8
0
100
AcDbLine
 10
3.977214230341819
 20
26.03967406584669
 30
0.0
 11
4.18136597602997
 21
25.27776937848463
 31
0.0
  0
LINE
  5
125
330
1F
100
AcDbEntity
  8
0
100
AcDbLine
 10
4.739118917703881
 20
27.35933169488266
 30
0.0
 11
4.181365976029975
 21
26.80157875320875
 31
0.0
  0
LINE
  5
126
330
1F
100
AcDbEntity
  8
0
100
AcDbLine
 10
4.18136597602997
 20
25.27776937848463
 30
0.0
 11
4.739118917703881
 21
24.72001643681072
 31
0.0
  0
LINE
  5
127
330
1F
100
AcDbEntity
  8
0
100
AcDbLine
 10
5.501023605065942
 20
27.56348344057081
 30
0.0
 11
4.739118917703881
 21
27.35933169488266
 31
0.0
  0
LINE
  5
128
330
1F
100
AcDbEntity
  8
0
100
AcDbLine
 10
6.262928292428004
 20
27.35933169488266
 30
0.0
 11
5.501023605065942
 21
27.56348344057081
 31
0.0
  0
LINE
  5
129
330
1F
100
AcDbEntity
  8
0
100
AcDbLine
 10
6.820681234101912
 20
26.80157875320875
 30
0.0
 11
6.262928292428004
 21
27.35933169488266
 31
0.0
  0
LINE
  5
12A
330
1F
100
AcDbEntity
  8
0
100
AcDbLine
 10
7.024832979790066
 20
26.03967406584669
 30
0.0
 11
6.820681234101912
 21
26.80157875320875
 31
0.0
  0
LINE
  5
12B
330
1F
100
AcDbEntity
  8
0
100
AcDbLine
 10
11.42962323743783
 20
14.10641689065725
 30
0.0
 11
11.4627778024364
 21
14.23015141173475
 31
0.0
  0
LINE
  5
12C
330
1F
100
AcDbEntity
  8
0
100
AcDbLine
 10
11.2153087602814
 20
14.47762045388975
 30
0.0
 11
11.0915742392039
 21
14.44446588889119
 31
0.0
  0
LINE
  5
12D
330
1F
100
AcDbEntity
  8
0
100
AcDbLine
 10
-22.11141792077631
 20
25.22969712129036
 30
0.0
 11
-22.8665917270987
 21
25.43204533283959
 31
0.0
  0
LINE
  5
12E
330
1F
100
AcDbEntity
  8
0
100
AcDbLine
 10
11.0915742392039
 20
14.01583693457832
 30
0.0
 11
11.2153087602814
 21
13.98268236957975
 31
0.0
  0
LINE
  5
12F
330
1F
100
AcDbEntity
  8
0
100
AcDbLine
 10
6.962773622635807
 20
25.80963223600077
 30
0.0
 11
6.760425411086582
 21
26.56480604232317
 31
0.0
  0
LINE
  5
130
330
1F
100
AcDbEntity
  8
0
100
AcDbLine
 10
6.760425411086582
 20
26.56480604232317
 30
0.0
 11
6.207599816313414
 21
27.11763163709633
 31
0.0
  0
LINE
  5
131
330
1F
100
AcDbEntity
  8
0
100
AcDbLine
 10
4.697252203668628
 20
27.11763163709633
 30
0.0
 11
4.14442660889546
 21
26.56480604232317
 31
0.0
  0
LINE
  5
132
330
1F
100
AcDbEntity
  8
0
100
AcDbLine
 10
6.207599816313414
 20
27.11763163709633
 30
0.0
 11
5.452426009991021
 21
27.31997984864556
 31
0.0
  0
LINE
  5
133
330
1F
100
AcDbEntity
  8
0
100
AcDbLine
 10
5.452426009991021
 20
27.31997984864556
 30
0.0
 11
4.697252203668628
 21
27.11763163709633
 31
0.0
  0
LINE
  5
134
330
1F
100
AcDbEntity
  8
0
100
AcDbLine
 10
4.14442660889546
 20
26.56480604232317
 30
0.0
 11
3.977214230341819
 21
26.03967406584669
 31
0.0
  0
LINE
  5
135
330
1F
100
AcDbEntity
  8
0
100
AcDbLine
 10
-24.57843088685578
 20
-21.03739661148789
 30
0.0
 11
-24.92976493451665
 21
-21.38873065914876
 31
0.0
  0
LINE
  5
136
330
1F
100
AcDbEntity
  8
0
100
AcDbLine
 10
-14.14186039982305
 20
12.2016551722521
 30
0.0
 11
-14.05128044374412
 21
12.11107521617317
 31
0.0
  0
LINE
  5
137
330
1F
100
AcDbEntity
  8
0
100
AcDbLine
 10
6.820681234101912
 20
25.27776937848463
 30
0.0
 11
6.962773622635807
 21
25.80963223600077
 31
0.0
  0
LINE
  5
138
330
1F
100
AcDbEntity
  8
0
100
AcDbLine
 10
11.23887097280581
 20
14.31685940058319
 30
0.0
 11
11.11622955740896
 21
14.34972106879739
 31
0.0
  0
LINE
  5
139
330
1F
100
AcDbEntity
  8
0
100
AcDbLine
 10
-28.02278263886474
 20
-17.9258259446483
 30
0.0
 11
-28.02278263886474
 21
-20.72281704707621
 31
0.0
  0
LINE
  5
13A
330
1F
100
AcDbEntity
  8
0
100
AcDbLine
 10
-27.95807050072139
 20
-21.17585506131168
 30
0.0
 11
-27.86386368523768
 21
-21.62369017637698
 31
0.0
  0
LINE
  5
13B
330
1F
100
AcDbEntity
  8
0
100
AcDbLine
 10
-27.74056875587296
 20
-22.06440502155704
 30
0.0
 11
-27.58871368044335
 21
-22.49611238822501
 31
0.0
  0
LINE
  5
13C
330
1F
100
AcDbEntity
  8
0
100
AcDbLine
 10
-28.02278263886474
 20
-20.72281704707621
 30
0.0
 11
-27.95807050072139
 21
-21.17585506131168
 31
0.0
  0
LINE
  5
13D
330
1F
100
AcDbEntity
  8
0
100
AcDbLine
 10
-27.58871368044335
 20
-22.49611238822501
 30
0.0
 11
-27.40894872569504
 21
-22.91696363915991
 31
0.0
  0
LINE
  5
13E
330
1F
100
AcDbEntity
  8
0
100
AcDbLine
 10
-26.96888452084643
 20
-23.71894339979923
 30
0.0
 11
-26.71046969323116
 21
-24.0966377090464
 31
0.0
  0
LINE
  5
13F
330
1F
100
AcDbEntity
  8
0
100
AcDbLine
 10
-25.44790470900242
 20
-25.41532018192008
 30
0.0
 11
-25.08179806601278
 21
-25.68990557907003
 31
0.0
  0
LINE
  5
140
330
1F
100
AcDbEntity
  8
0
100
AcDbLine
 10
-24.29970140499803
 20
-26.16440832268032
 30
0.0
 11
-23.88706044494504
 21
-26.36229377554555
 31
0.0
  0
LINE
  5
141
330
1F
100
AcDbEntity
  8
0
100
AcDbLine
 10
-24.59421154573547
 20
-23.66093121068014
 30
0.0
 11
-23.8323068583734
 21
-23.86508295636829
 31
0.0
  0
LINE
  5
142
330
1F
100
AcDbEntity
  8
0
100
AcDbLine
 10
-25.79526874535205
 20
-25.11737817309955
 30
0.0
 11
-25.44790470900242
 21
-25.41532018192008
 31
0.0
  0
LINE
  5
143
330
1F
100
AcDbEntity
  8
0
100
AcDbLine
 10
-26.42790576188091
 20
-24.45662220741963
 30
0.0
 11
-26.12240270892974
 21
-24.79735538603105
 31
0.0
  0
LINE
  5
144
330
1F
100
AcDbEntity
  8
0
100
AcDbLine
 10
-24.69851654123413
 20
-25.93995854772363
 30
0.0
 11
-24.29970140499803
 21
-26.16440832268032
 31
0.0
  0
LINE
  5
145
330
1F
100
AcDbEntity
  8
0
100
AcDbLine
 10
-25.08179806601278
 20
-25.68990557907003
 30
0.0
 11
-24.69851654123413
 21
-25.93995854772363
 31
0.0
  0
LINE
  5
146
330
1F
100
AcDbEntity
  8
0
100
AcDbLine
 10
-26.12240270892974
 20
-24.79735538603105
 30
0.0
 11
-25.79526874535205
 21
-25.11737817309955
 31
0.0
  0
LINE
  5
147
330
1F
100
AcDbEntity
  8
0
100
AcDbLine
 10
-27.86386368523768
 20
-21.62369017637698
 30
0.0
 11
-27.74056875587296
 21
-22.06440502155704
 31
0.0
  0
LINE
  5
148
330
1F
100
AcDbEntity
  8
0
100
AcDbLine
 10
-23.88706044494504
 20
-26.36229377554555
 30
0.0
 11
-23.46236065301591
 21
-26.53276753043025
 31
0.0
  0
LINE
  5
149
330
1F
100
AcDbEntity
  8
0
100
AcDbLine
 10
-23.46236065301591
 20
-26.53276753043025
 30
0.0
 11
-23.02742065892078
 21
-26.67509959254437
 31
0.0
  0
LINE
  5
14A
330
1F
100
AcDbEntity
  8
0
100
AcDbLine
 10
-23.02742065892078
 20
-26.67509959254437
 30
0.0
 11
-22.58410294248756
 21
-26.78868047414674
 31
0.0
  0
LINE
  5
14B
330
1F
100
AcDbEntity
  8
0
100
AcDbLine
 10
-22.58410294248756
 20
-26.78868047414674
 30
0.0
 11
-22.1343058582374
 21
-26.87302380446509
 31
0.0
  0
LINE
  5
14C
330
1F
100
AcDbEntity
  8
0
100
AcDbLine
 10
-22.1343058582374
 20
-26.87302380446509
 30
0.0
 11
-21.67995550633917
 21
-26.92776841241035
 31
0.0
  0
LINE
  5
14D
330
1F
100
AcDbEntity
  8
0
100
AcDbLine
 10
-21.67995550633917
 20
-26.92776841241035
 30
0.0
 11
-21.22299748475282
 21
-26.95267987316676
 31
0.0
  0
LINE
  5
14E
330
1F
100
AcDbEntity
  8
0
100
AcDbLine
 10
-21.22299748475282
 20
-26.95267987316676
 30
0.0
 11
-20.76538855788026
 21
-26.94765151203489
 31
0.0
  0
LINE
  5
14F
330
1F
100
AcDbEntity
  8
0
100
AcDbLine
 10
-27.2020436727623
 20
-23.32515662469498
 30
0.0
 11
-26.96888452084643
 21
-23.71894339979923
 31
0.0
  0
LINE
  5
150
330
1F
100
AcDbEntity
  8
0
100
AcDbLine
 10
-26.71046969323116
 20
-24.0966377090464
 30
0.0
 11
-26.42790576188091
 21
-24.45662220741963
 31
0.0
  0
LINE
  5
151
330
1F
100
AcDbEntity
  8
0
100
AcDbLine
 10
-20.76538855788026
 20
-26.94765151203489
 30
0.0
 11
-20.30908827739975
 21
-26.91270486122908
 31
0.0
  0
LINE
  5
152
330
1F
100
AcDbEntity
  8
0
100
AcDbLine
 10
11.3390432813589
 20
14.01583693457832
 30
0.0
 11
11.36151238820265
 21
14.1044382380037
 31
0.0
  0
LINE
  5
153
330
1F
100
AcDbEntity
  8
0
100
AcDbLine
 10
-20.30908827739975
 20
-26.91270486122908
 30
0.0
 11
-19.0359068776965
 21
-26.91270170581653
 31
0.0
  0
LINE
  5
154
330
1F
100
AcDbEntity
  8
0
100
AcDbLine
 10
-8.315336640295234
 20
24.51586469112258
 30
0.0
 11
-8.594213111132188
 21
24.79474116195953
 31
0.0
  0
LINE
  5
155
330
1F
100
AcDbEntity
  8
0
100
AcDbLine
 10
-8.262951070941432
 20
24.32035908471076
 30
0.0
 11
-8.518289406973244
 21
24.57569742074259
 31
0.0
  0
LINE
  5
156
330
1F
100
AcDbEntity
  8
0
100
AcDbLine
 10
27.21530719488467
 20
-7.415140808755925
 30
0.0
 11
27.21530719488467
 21
22.23015062903639
 31
0.0
  0
LINE
  5
157
330
1F
100
AcDbEntity
  8
0
100
AcDbLine
 10
-18.27400219033444
 20
28.32538812793288
 30
0.0
 11
-20.40373576524413
 21
28.32538812793288
 31
0.0
  0
LINE
  5
158
330
1F
100
AcDbEntity
  8
0
100
AcDbLine
 10
-18.11256449753372
 20
28.07515365496795
 30
0.0
 11
-17.88754293217021
 21
27.61790273824495
 31
0.0
  0
LINE
  5
159
330
1F
100
AcDbEntity
  8
0
100
AcDbLine
 10
-17.6193722617033
 20
27.18454556181842
 30
0.0
 11
-17.48227043189392
 21
27.00455879658115
 31
0.0
  0
LINE
  5
15A
330
1F
100
AcDbEntity
  8
0
100
AcDbLine
 10
25.90774512208771
 20
-16.35477229183865
 30
0.0
 11
26.08427139702968
 21
-16.51909809691456
 31
0.0
  0
LINE
  5
15B
330
1F
100
AcDbEntity
  8
0
100
AcDbLine
 10
26.31676109186541
 20
-16.66633318801818
 30
0.0
 11
26.51762857345621
 21
-16.78726876738147
 31
0.0
  0
LINE
  5
15C
330
1F
100
AcDbEntity
  8
0
100
AcDbLine
 10
26.51762857345621
 20
-16.78726876738147
 30
0.0
 11
26.97487949017921
 21
-17.01229033274497
 31
0.0
  0
LINE
  5
15D
330
1F
100
AcDbEntity
  8
0
100
AcDbLine
 10
-18.10726282811991
 20
-25.39543751661989
 30
0.0
 11
-18.29745900266287
 21
-25.64512633743349
 31
0.0
  0
LINE
  5
15E
330
1F
100
AcDbEntity
  8
0
100
AcDbLine
 10
-18.60754697712843
 20
-26.14622084125917
 30
0.0
 11
-18.86773830385611
 21
-26.6749473034055
 31
0.0
  0
LINE
  5
15F
330
1F
100
AcDbEntity
  8
0
100
AcDbLine
 10
-27.77522146819425
 20
-17.76746413906736
 30
0.0
 11
-27.24649500604791
 21
-17.50727281233968
 31
0.0
  0
LINE
  5
160
330
1F
100
AcDbEntity
  8
0
100
AcDbLine
 10
-27.24649500604791
 20
-17.50727281233968
 30
0.0
 11
-26.98378285557135
 21
-17.3504637312783
 31
0.0
  0
LINE
  5
161
330
1F
100
AcDbEntity
  8
0
100
AcDbLine
 10
-26.74540050222223
 20
-17.19718483787412
 30
0.0
 11
-26.51083429124249
 21
-16.99020327829596
 31
0.0
  0
LINE
  5
162
330
1F
100
AcDbEntity
  8
0
100
AcDbLine
 10
-24.92976493451665
 20
-21.38873065914876
 30
0.0
 11
-25.13211314606588
 21
-22.14390446547115
 31
0.0
  0
LINE
  5
163
330
1F
100
AcDbEntity
  8
0
100
AcDbLine
 10
-25.13211314606588
 20
-22.14390446547115
 30
0.0
 11
-24.92976493451665
 21
-22.89907827179354
 31
0.0
  0
LINE
  5
164
330
1F
100
AcDbEntity
  8
0
100
AcDbLine
 10
-24.92976493451665
 20
-22.89907827179354
 30
0.0
 11
-24.37693933974349
 21
-23.45190386656672
 31
0.0
  0
LINE
  5
165
330
1F
100
AcDbEntity
  8
0
100
AcDbLine
 10
-24.37693933974349
 20
-23.45190386656672
 30
0.0
 11
-23.6217655334211
 21
-23.65425207811594
 31
0.0
  0
LINE
  5
166
330
1F
100
AcDbEntity
  8
0
100
AcDbLine
 10
-23.6217655334211
 20
-23.65425207811594
 30
0.0
 11
-22.8665917270987
 21
-23.45190386656672
 31
0.0
  0
LINE
  5
167
330
1F
100
AcDbEntity
  8
0
100
AcDbLine
 10
-22.8665917270987
 20
-23.45190386656672
 30
0.0
 11
-22.51525767943783
 21
-23.10056981890584
 31
0.0
  0
LINE
  5
168
330
1F
100
AcDbEntity
  8
0
100
AcDbLine
 10
-8.198866642660313
 20
24.138769241555
 30
0.0
 11
-8.241876609586662
 21
24.29928462335599
 31
0.0
  0
LINE
  5
169
330
1F
100
AcDbEntity
  8
0
100
AcDbLine
 10
-8.518289406973244
 20
24.57569742074259
 30
0.0
 11
-8.895876310134442
 21
24.67687152651719
 31
0.0
  0
LINE
  5
16A
330
1F
100
AcDbEntity
  8
0
100
AcDbLine
 10
-8.895876310134442
 20
24.67687152651719
 30
0.0
 11
-9.273463213295638
 21
24.57569742074259
 31
0.0
  0
LINE
  5
16B
330
1F
100
AcDbEntity
  8
0
100
AcDbLine
 10
-9.273463213295638
 20
24.57569742074259
 30
0.0
 11
-9.549876010682222
 21
24.29928462335599
 31
0.0
  0
LINE
  5
16C
330
1F
100
AcDbEntity
  8
0
100
AcDbLine
 10
-9.549876010682222
 20
24.29928462335599
 30
0.0
 11
-9.651050116456833
 21
23.9216977201948
 31
0.0
  0
LINE
  5
16D
330
1F
100
AcDbEntity
  8
0
100
AcDbLine
 10
-9.651050116456833
 20
23.9216977201948
 30
0.0
 11
-9.608040149530487
 21
23.76118233839381
 31
0.0
  0
LINE
  5
16E
330
1F
100
AcDbEntity
  8
0
100
AcDbLine
 10
-8.192135761620642
 20
21.09295402624569
 30
0.0
 11
-8.241876609586662
 21
21.27858939806642
 31
0.0
  0
LINE
  5
16F
330
1F
100
AcDbEntity
  8
0
100
AcDbLine
 10
-8.272805764742909
 20
21.30951855322267
 30
0.0
 11
-8.518289406973244
 21
21.55500219545301
 31
0.0
  0
LINE
  5
170
330
1F
100
AcDbEntity
  8
0
100
AcDbLine
 10
-8.518289406973244
 20
21.55500219545301
 30
0.0
 11
-8.895876310134442
 21
21.65617630122762
 31
0.0
  0
LINE
  5
171
330
1F
100
AcDbEntity
  8
0
100
AcDbLine
 10
-8.895876310134442
 20
21.65617630122762
 30
0.0
 11
-9.273463213295638
 21
21.55500219545301
 31
0.0
  0
LINE
  5
172
330
1F
100
AcDbEntity
  8
0
100
AcDbLine
 10
-9.273463213295638
 20
21.55500219545301
 30
0.0
 11
-9.549876010682222
 21
21.27858939806642
 31
0.0
  0
LINE
  5
173
330
1F
100
AcDbEntity
  8
0
100
AcDbLine
 10
-9.549876010682222
 20
21.27858939806642
 30
0.0
 11
-9.651050116456833
 21
20.90100249490523
 31
0.0
  0
LINE
  5
174
330
1F
100
AcDbEntity
  8
0
100
AcDbLine
 10
-9.651050116456833
 20
20.90100249490523
 30
0.0
 11
-9.585676005194879
 21
20.65702299017594
 31
0.0
  0
LINE
  5
175
330
1F
100
AcDbEntity
  8
0
100
AcDbLine
 10
11.36151238820265
 20
14.1044382380037
 30
0.0
 11
11.32865071998846
 21
14.22707965340054
 31
0.0
  0
LINE
  5
176
330
1F
100
AcDbEntity
  8
0
100
AcDbLine
 10
11.32865071998846
 20
14.22707965340054
 30
0.0
 11
11.23887097280581
 21
14.31685940058319
 31
0.0
  0
LINE
  5
177
330
1F
100
AcDbEntity
  8
0
100
AcDbLine
 10
11.11622955740896
 20
14.34972106879739
 30
0.0
 11
10.99358814201211
 21
14.31685940058319
 31
0.0
  0
LINE
  5
178
330
1F
100
AcDbEntity
  8
0
100
AcDbLine
 10
-13.71618010008713
 20
12.43811968571196
 30
0.0
 11
-13.80450605122999
 21
12.4617865529914
 31
0.0
  0
LINE
  5
179
330
1F
100
AcDbEntity
  8
0
100
AcDbLine
 10
-13.80450605122999
 20
12.4617865529914
 30
0.0
 11
-13.92714746662684
 21
12.42892488477721
 31
0.0
  0
LINE
  5
17A
330
1F
100
AcDbEntity
  8
0
100
AcDbLine
 10
-13.92714746662684
 20
12.42892488477721
 30
0.0
 11
-14.01692721380949
 21
12.33914513759456
 31
0.0
  0
LINE
  5
17B
330
1F
100
AcDbEntity
  8
0
100
AcDbLine
 10
-14.01692721380949
 20
12.33914513759456
 30
0.0
 11
-14.04978888202368
 21
12.21650372219771
 31
0.0
  0
LINE
  5
17C
330
1F
100
AcDbEntity
  8
0
100
AcDbLine
 10
-14.04978888202368
 20
12.21650372219771
 30
0.0
 11
-14.05128044374412
 21
12.11107521617317
 31
0.0
  0
LINE
  5
17D
330
1F
100
AcDbEntity
  8
0
100
AcDbLine
 10
13.24944690400864
 20
-10.81629737063527
 30
0.0
 11
13.2195918239425
 21
-10.70487669496441
 31
0.0
  0
LINE
  5
17E
330
1F
100
AcDbEntity
  8
0
100
AcDbLine
 10
12.90606249007973
 20
-11.03529396145166
 30
0.0
 11
13.00416407321495
 21
-11.06158020142896
 31
0.0
  0
LINE
  5
17F
330
1F
100
AcDbEntity
  8
0
100
AcDbLine
 10
13.00416407321495
 20
-11.06158020142896
 30
0.0
 11
13.12680548861179
 21
-11.02871853321476
 31
0.0
  0
LINE
  5
180
330
1F
100
AcDbEntity
  8
0
100
AcDbLine
 10
13.12680548861179
 20
-11.02871853321476
 30
0.0
 11
13.21658523579444
 21
-10.93893878603211
 31
0.0
  0
LINE
  5
181
330
1F
100
AcDbEntity
  8
0
100
AcDbLine
 10
13.21658523579444
 20
-10.93893878603211
 30
0.0
 11
13.24944690400864
 21
-10.81629737063527
 31
0.0
  0
LINE
  5
182
330
1F
100
AcDbEntity
  8
0
100
AcDbLine
 10
-12.13555672957567
 20
-12.60608777037419
 30
0.0
 11
-12.1618543662177
 21
-12.70423188644125
 31
0.0
  0
LINE
  5
183
330
1F
100
AcDbEntity
  8
0
100
AcDbLine
 10
-12.1618543662177
 20
-12.70423188644125
 30
0.0
 11
-12.12899269800351
 21
-12.82687330183809
 31
0.0
  0
LINE
  5
184
330
1F
100
AcDbEntity
  8
0
100
AcDbLine
 10
-12.12899269800351
 20
-12.82687330183809
 30
0.0
 11
-12.03921295082086
 21
-12.91665304902074
 31
0.0
  0
LINE
  5
185
330
1F
100
AcDbEntity
  8
0
100
AcDbLine
 10
-12.03921295082086
 20
-12.91665304902074
 30
0.0
 11
-11.91657153542401
 21
-12.94951471723494
 31
0.0
  0
LINE
  5
186
330
1F
100
AcDbEntity
  8
0
100
AcDbLine
 10
-11.91657153542401
 20
-12.94951471723494
 30
0.0
 11
-11.81363237353013
 21
-12.92193225193593
 31
0.0
  0
LINE
  5
187
330
1F
100
AcDbEntity
  8
0
100
AcDbLine
 10
-18.77339645984953
 20
-26.37926269287799
 30
0.0
 11
-19.0359068776965
 21
-26.91270170581653
 31
0.0
  0
LINE
  5
188
330
1F
100
AcDbEntity
  8
0
100
AcDbLine
 10
-17.6959898670632
 20
-24.96484738018277
 30
0.0
 11
-18.10726282811991
 21
-25.39543751661989
 31
0.0
  0
LINE
  5
189
330
1F
100
AcDbEntity
  8
0
100
AcDbLine
 10
-17.25144888834387
 20
-24.57006736964144
 30
0.0
 11
-17.6959898670632
 21
-24.96484738018277
 31
0.0
  0
LINE
  5
18A
330
1F
100
AcDbEntity
  8
0
100
AcDbLine
 10
-16.77082554534015
 20
-24.22011145721289
 30
0.0
 11
-17.25144888834387
 21
-24.57006736964144
 31
0.0
  0
LINE
  5
18B
330
1F
100
AcDbEntity
  8
0
100
AcDbLine
 10
-16.25862211239435
 20
-23.91825788052001
 30
0.0
 11
-16.77082554534015
 21
-24.22011145721289
 31
0.0
  0
LINE
  5
18C
330
1F
100
AcDbEntity
  8
0
100
AcDbLine
 10
-15.7196366926526
 20
-23.66733427503502
 30
0.0
 11
-16.25862211239435
 21
-23.91825788052001
 31
0.0
  0
LINE
  5
18D
330
1F
100
AcDbEntity
  8
0
100
AcDbLine
 10
-15.15891827148257
 20
-23.46969118599737
 30
0.0
 11
-15.7196366926526
 21
-23.66733427503502
 31
0.0
  0
LINE
  5
18E
330
1F
100
AcDbEntity
  8
0
100
AcDbLine
 10
-14.5817194197334
 20
-23.32718004950904
 30
0.0
 11
-15.15891827148257
 21
-23.46969118599737
 31
0.0
  0
LINE
  5
18F
330
1F
100
AcDbEntity
  8
0
100
AcDbLine
 10
-13.99344708989387
 20
-23.24113584907146
 30
0.0
 11
-14.5817194197334
 21
-23.32718004950904
 31
0.0
  0
LINE
  5
190
330
1F
100
AcDbEntity
  8
0
100
AcDbLine
 10
-13.39961196606928
 20
-23.21236461002977
 30
0.0
 11
-13.99344708989387
 21
-23.24113584907146
 31
0.0
  0
LINE
  5
191
330
1F
100
AcDbEntity
  8
0
100
AcDbLine
 10
-12.80577684224469
 20
-23.24113584907146
 30
0.0
 11
-13.39961196606928
 21
-23.21236461002977
 31
0.0
  0
LINE
  5
192
330
1F
100
AcDbEntity
  8
0
100
AcDbLine
 10
-12.21750451240517
 20
-23.32718004950904
 30
0.0
 11
-12.80577684224469
 21
-23.24113584907146
 31
0.0
  0
LINE
  5
193
330
1F
100
AcDbEntity
  8
0
100
AcDbLine
 10
-11.64030566065599
 20
-23.46969118599737
 30
0.0
 11
-12.21750451240517
 21
-23.32718004950904
 31
0.0
  0
LINE
  5
194
330
1F
100
AcDbEntity
  8
0
100
AcDbLine
 10
-11.07958723948596
 20
-23.66733427503502
 30
0.0
 11
-11.64030566065599
 21
-23.46969118599737
 31
0.0
  0
LINE
  5
195
330
1F
100
AcDbEntity
  8
0
100
AcDbLine
 10
-10.54060181974422
 20
-23.91825788052001
 30
0.0
 11
-11.07958723948596
 21
-23.66733427503502
 31
0.0
  0
LINE
  5
196
330
1F
100
AcDbEntity
  8
0
100
AcDbLine
 10
-10.02839838679841
 20
-24.22011145721289
 30
0.0
 11
-10.54060181974422
 21
-23.91825788052001
 31
0.0
  0
LINE
  5
197
330
1F
100
AcDbEntity
  8
0
100
AcDbLine
 10
-9.547775043794694
 20
-24.57006736964143
 30
0.0
 11
-10.02839838679841
 21
-24.22011145721289
 31
0.0
  0
LINE
  5
198
330
1F
100
AcDbEntity
  8
0
100
AcDbLine
 10
26.75398079050576
 20
-16.93689406967373
 30
0.0
 11
27.21530719488467
 21
-17.16392125728623
 31
0.0
  0
LINE
  5
199
330
1F
100
AcDbEntity
  8
0
100
AcDbLine
 10
25.1893502250214
 20
-15.6206814646232
 30
0.0
 11
25.53076436820535
 21
-16.00512995063316
 31
0.0
  0
LINE
  5
19A
330
1F
100
AcDbEntity
  8
0
100
AcDbLine
 10
24.88670091451019
 20
-15.20502818313914
 30
0.0
 11
25.1893502250214
 21
-15.6206814646232
 31
0.0
  0
LINE
  5
19B
330
1F
100
AcDbEntity
  8
0
100
AcDbLine
 10
24.62565152623874
 20
-14.76206376871685
 30
0.0
 11
24.88670091451019
 21
-15.20502818313914
 31
0.0
  0
LINE
  5
19C
330
1F
100
AcDbEntity
  8
0
100
AcDbLine
 10
24.40864745945782
 20
-14.29593772292889
 30
0.0
 11
24.62565152623874
 21
-14.76206376871685
 31
0.0
  0
LINE
  5
19D
330
1F
100
AcDbEntity
  8
0
100
AcDbLine
 10
24.2377215156455
 20
-13.81101651562481
 30
0.0
 11
24.40864745945782
 21
-14.29593772292889
 31
0.0
  0
LINE
  5
19E
330
1F
100
AcDbEntity
  8
0
100
AcDbLine
 10
24.11447485609044
 20
-13.3118426817053
 30
0.0
 11
24.2377215156455
 21
-13.81101651562481
 31
0.0
  0
LINE
  5
19F
330
1F
100
AcDbEntity
  8
0
100
AcDbLine
 10
24.04006200289642
 20
-12.80309226859401
 30
0.0
 11
24.11447485609044
 21
-13.3118426817053
 31
0.0
  0
LINE
  5
1A0
330
1F
100
AcDbEntity
  8
0
100
AcDbLine
 10
24.01518002391201
 20
-12.28953103302108
 30
0.0
 11
24.04006200289642
 21
-12.80309226859401
 31
0.0
  0
LINE
  5
1A1
330
1F
100
AcDbEntity
  8
0
100
AcDbLine
 10
24.11447485609044
 20
-11.26721938433686
 30
0.0
 11
24.04006200289642
 21
-11.77596979744814
 31
0.0
  0
LINE
  5
1A2
330
1F
100
AcDbEntity
  8
0
100
AcDbLine
 10
24.2377215156455
 20
-10.76804555041736
 30
0.0
 11
24.11447485609044
 21
-11.26721938433686
 31
0.0
  0
LINE
  5
1A3
330
1F
100
AcDbEntity
  8
0
100
AcDbLine
 10
24.40864745945782
 20
-10.28312434311328
 30
0.0
 11
24.2377215156455
 21
-10.76804555041736
 31
0.0
  0
LINE
  5
1A4
330
1F
100
AcDbEntity
  8
0
100
AcDbLine
 10
24.88670091451018
 20
-9.37403388290302
 30
0.0
 11
24.62565152623873
 21
-9.816998297325311
 31
0.0
  0
LINE
  5
1A5
330
1F
100
AcDbEntity
  8
0
100
AcDbLine
 10
25.1893502250214
 20
-8.958380601418964
 30
0.0
 11
24.88670091451018
 21
-9.37403388290302
 31
0.0
  0
LINE
  5
1A6
330
1F
100
AcDbEntity
  8
0
100
AcDbLine
 10
25.53076436820534
 20
-8.573932115408997
 30
0.0
 11
25.1893502250214
 21
-8.958380601418964
 31
0.0
  0
LINE
  5
1A7
330
1F
100
AcDbEntity
  8
0
100
AcDbLine
 10
25.90774512208771
 20
-8.22428977420351
 30
0.0
 11
25.53076436820534
 21
-8.573932115408997
 31
0.0
  0
LINE
  5
1A8
330
1F
100
AcDbEntity
  8
0
100
AcDbLine
 10
26.31676109186541
 20
-7.912728878023982
 30
0.0
 11
25.90774512208771
 21
-8.22428977420351
 31
0.0
  0
LINE
  5
1A9
330
1F
100
AcDbEntity
  8
0
100
AcDbLine
 10
26.75398079050575
 20
-7.642167996368433
 30
0.0
 11
26.31676109186541
 21
-7.912728878023982
 31
0.0
  0
LINE
  5
1AA
330
1F
100
AcDbEntity
  8
0
100
AcDbLine
 10
27.21530719488467
 20
-7.415140808755925
 30
0.0
 11
26.75398079050575
 21
-7.642167996368433
 31
0.0
  0
LINE
  5
1AB
330
1F
100
AcDbEntity
  8
0
100
AcDbLine
 10
-8.752248929416627
 20
27.86406172355396
 30
0.0
 11
-8.525221741804128
 21
28.32538812793288
 31
0.0
  0
LINE
  5
1AC
330
1F
100
AcDbEntity
  8
0
100
AcDbLine
 10
-9.022809811072177
 20
27.42684202491363
 30
0.0
 11
-8.752248929416627
 21
27.86406172355396
 31
0.0
  0
LINE
  5
1AD
330
1F
100
AcDbEntity
  8
0
100
AcDbLine
 10
-9.334370707251708
 20
27.01782605513593
 30
0.0
 11
-9.022809811072177
 21
27.42684202491363
 31
0.0
  0
LINE
  5
1AE
330
1F
100
AcDbEntity
  8
0
100
AcDbLine
 10
-9.684013048457194
 20
26.64084530125355
 30
0.0
 11
-9.334370707251708
 21
27.01782605513593
 31
0.0
  0
LINE
  5
1AF
330
1F
100
AcDbEntity
  8
0
100
AcDbLine
 10
-10.06846153446716
 20
26.29943115806961
 30
0.0
 11
-9.684013048457194
 21
26.64084530125355
 31
0.0
  0
LINE
  5
1B0
330
1F
100
AcDbEntity
  8
0
100
AcDbLine
 10
-10.48411481595122
 20
25.9967818475584
 30
0.0
 11
-10.06846153446716
 21
26.29943115806961
 31
0.0
  0
LINE
  5
1B1
330
1F
100
AcDbEntity
  8
0
100
AcDbLine
 10
-10.9270792303735
 20
25.73573245928695
 30
0.0
 11
-10.48411481595122
 21
25.9967818475584
 31
0.0
  0
LINE
  5
1B2
330
1F
100
AcDbEntity
  8
0
100
AcDbLine
 10
-11.39320527616147
 20
25.51872839250603
 30
0.0
 11
-10.9270792303735
 21
25.73573245928695
 31
0.0
  0
LINE
  5
1B3
330
1F
100
AcDbEntity
  8
0
100
AcDbLine
 10
-11.87812648346555
 20
25.3478024486937
 30
0.0
 11
-11.39320527616147
 21
25.51872839250603
 31
0.0
  0
LINE
  5
1B4
330
1F
100
AcDbEntity
  8
0
100
AcDbLine
 10
-12.37730031738505
 20
25.22455578913864
 30
0.0
 11
-11.87812648346555
 21
25.3478024486937
 31
0.0
  0
LINE
  5
1B5
330
1F
100
AcDbEntity
  8
0
100
AcDbLine
 10
-12.88605073049634
 20
25.15014293594463
 30
0.0
 11
-12.37730031738505
 21
25.22455578913864
 31
0.0
  0
LINE
  5
1B6
330
1F
100
AcDbEntity
  8
0
100
AcDbLine
 10
-13.39961196606927
 20
25.1252609569602
 30
0.0
 11
-12.88605073049634
 21
25.15014293594463
 31
0.0
  0
LINE
  5
1B7
330
1F
100
AcDbEntity
  8
0
100
AcDbLine
 10
-13.91317320164221
 20
25.15014293594463
 30
0.0
 11
-13.39961196606927
 21
25.1252609569602
 31
0.0
  0
LINE
  5
1B8
330
1F
100
AcDbEntity
  8
0
100
AcDbLine
 10
-14.42192361475349
 20
25.22455578913864
 30
0.0
 11
-13.91317320164221
 21
25.15014293594463
 31
0.0
  0
LINE
  5
1B9
330
1F
100
AcDbEntity
  8
0
100
AcDbLine
 10
-14.921097448673
 20
25.3478024486937
 30
0.0
 11
-14.42192361475349
 21
25.22455578913864
 31
0.0
  0
LINE
  5
1BA
330
1F
100
AcDbEntity
  8
0
100
AcDbLine
 10
-15.40601865597708
 20
25.51872839250603
 30
0.0
 11
-14.921097448673
 21
25.3478024486937
 31
0.0
  0
LINE
  5
1BB
330
1F
100
AcDbEntity
  8
0
100
AcDbLine
 10
-15.87214470176504
 20
25.73573245928694
 30
0.0
 11
-15.40601865597708
 21
25.51872839250603
 31
0.0
  0
LINE
  5
1BC
330
1F
100
AcDbEntity
  8
0
100
AcDbLine
 10
-16.31510911618733
 20
25.99678184755839
 30
0.0
 11
-15.87214470176504
 21
25.73573245928694
 31
0.0
  0
LINE
  5
1BD
330
1F
100
AcDbEntity
  8
0
100
AcDbLine
 10
-16.73076239767139
 20
26.29943115806961
 30
0.0
 11
-16.31510911618733
 21
25.99678184755839
 31
0.0
  0
LINE
  5
1BE
330
1F
100
AcDbEntity
  8
0
100
AcDbLine
 10
-17.11521088368136
 20
26.64084530125354
 30
0.0
 11
-16.73076239767139
 21
26.29943115806961
 31
0.0
  0
LINE
  5
1BF
330
1F
100
AcDbEntity
  8
0
100
AcDbLine
 10
-17.48227043189392
 20
27.00455879658115
 30
0.0
 11
-17.11521088368136
 21
26.64084530125354
 31
0.0
  0
LINE
  5
1C0
330
1F
100
AcDbEntity
  8
0
100
AcDbLine
 10
-18.27400219033444
 20
28.32538812793288
 30
0.0
 11
-18.04697500272193
 21
27.86406172355395
 31
0.0
  0
LINE
  5
1C1
330
1F
100
AcDbEntity
  8
0
100
AcDbLine
 10
-22.30849748364928
 20
-22.34127358164417
 30
0.0
 11
-22.51264922933743
 21
-21.57936889428211
 31
0.0
  0
LINE
  5
1C2
330
1F
100
AcDbEntity
  8
0
100
AcDbLine
 10
-22.51525767943783
 20
-23.10056981890584
 30
0.0
 11
-22.30849748364928
 21
-22.34127358164417
 31
0.0
  0
LINE
  5
1C3
330
1F
100
AcDbEntity
  8
0
100
AcDbLine
 10
-23.8323068583734
 20
-23.86508295636829
 30
0.0
 11
-23.07040217101134
 21
-23.66093121068014
 31
0.0
  0
LINE
  5
1C4
330
1F
100
AcDbEntity
  8
0
100
AcDbLine
 10
-25.15196448740937
 20
-23.10317826900624
 30
0.0
 11
-24.59421154573547
 21
-23.66093121068014
 31
0.0
  0
LINE
  5
1C5
330
1F
100
AcDbEntity
  8
0
100
AcDbLine
 10
-25.35611623309752
 20
-22.34127358164417
 30
0.0
 11
-25.15196448740937
 21
-23.10317826900624
 31
0.0
  0
LINE
  5
1C6
330
1F
100
AcDbEntity
  8
0
100
AcDbLine
 10
-25.15196448740937
 20
-21.57936889428211
 30
0.0
 11
-25.35611623309752
 21
-22.34127358164417
 31
0.0
  0
LINE
  5
1C7
330
1F
100
AcDbEntity
  8
0
100
AcDbLine
 10
-23.8323068583734
 20
-20.81746420692005
 30
0.0
 11
-24.57843088685578
 21
-21.03739661148789
 31
0.0
  0
LINE
  5
1C8
330
1F
100
AcDbEntity
  8
0
100
AcDbLine
 10
-23.07040217101134
 20
-21.0216159526082
 30
0.0
 11
-23.8323068583734
 21
-20.81746420692005
 31
0.0
  0
LINE
  5
1C9
330
1F
100
AcDbEntity
  8
0
100
AcDbLine
 10
-22.51264922933743
 20
-21.57936889428211
 30
0.0
 11
-23.07040217101134
 21
-21.0216159526082
 31
0.0
  0
LINE
  5
1CA
330
1F
100
AcDbEntity
  8
0
100
AcDbLine
 10
-8.315336640295234
 20
23.75396000376051
 30
0.0
 11
-8.198866642660313
 21
24.138769241555
 31
0.0
  0
LINE
  5
1CB
330
1F
100
AcDbEntity
  8
0
100
AcDbLine
 10
-8.594213111132188
 20
23.47508353292356
 30
0.0
 11
-8.315336640295234
 21
23.75396000376051
 31
0.0
  0
LINE
  5
1CC
330
1F
100
AcDbEntity
  8
0
100
AcDbLine
 10
-8.975165454813217
 20
23.37300766007948
 30
0.0
 11
-8.594213111132188
 21
23.47508353292356
 31
0.0
  0
LINE
  5
1CD
330
1F
100
AcDbEntity
  8
0
100
AcDbLine
 10
-9.35611779849425
 20
23.47508353292356
 30
0.0
 11
-8.975165454813217
 21
23.37300766007948
 31
0.0
  0
LINE
  5
1CE
330
1F
100
AcDbEntity
  8
0
100
AcDbLine
 10
-9.608040149530487
 20
23.76118233839381
 30
0.0
 11
-9.35611779849425
 21
23.47508353292356
 31
0.0
  0
LINE
  5
1CF
330
1F
100
AcDbEntity
  8
0
100
AcDbLine
 10
-9.634994269331202
 20
24.51586469112258
 30
0.0
 11
-9.73707014217528
 21
24.13491234744154
 31
0.0
  0
LINE
  5
1D0
330
1F
100
AcDbEntity
  8
0
100
AcDbLine
 10
-9.35611779849425
 20
24.79474116195953
 30
0.0
 11
-9.634994269331202
 21
24.51586469112258
 31
0.0
  0
LINE
  5
1D1
330
1F
100
AcDbEntity
  8
0
100
AcDbLine
 10
-8.975165454813217
 20
24.8968170348036
 30
0.0
 11
-9.35611779849425
 21
24.79474116195953
 31
0.0
  0
LINE
  5
1D2
330
1F
100
AcDbEntity
  8
0
100
AcDbLine
 10
-8.594213111132188
 20
24.79474116195953
 30
0.0
 11
-8.975165454813217
 21
24.8968170348036
 31
0.0
  0
LINE
  5
1D3
330
1F
100
AcDbEntity
  8
0
100
AcDbLine
 10
-8.315336640295234
 20
20.70634125431227
 30
0.0
 11
-8.192135761620642
 21
21.09295402624569
 31
0.0
  0
LINE
  5
1D4
330
1F
100
AcDbEntity
  8
0
100
AcDbLine
 10
-8.594213111132188
 20
20.42746478347531
 30
0.0
 11
-8.315336640295234
 21
20.70634125431227
 31
0.0
  0
LINE
  5
1D5
330
1F
100
AcDbEntity
  8
0
100
AcDbLine
 10
-8.975165454813217
 20
20.32538891063123
 30
0.0
 11
-8.594213111132188
 21
20.42746478347531
 31
0.0
  0
LINE
  5
1D6
330
1F
100
AcDbEntity
  8
0
100
AcDbLine
 10
-9.35611779849425
 20
20.42746478347531
 30
0.0
 11
-8.975165454813217
 21
20.32538891063123
 31
0.0
  0
LINE
  5
1D7
330
1F
100
AcDbEntity
  8
0
100
AcDbLine
 10
-9.73707014217528
 20
21.0872935979933
 30
0.0
 11
-9.634994269331205
 21
20.70634125431227
 31
0.0
  0
LINE
  5
1D8
330
1F
100
AcDbEntity
  8
0
100
AcDbLine
 10
-9.634994269331202
 20
21.46824594167433
 30
0.0
 11
-9.73707014217528
 21
21.0872935979933
 31
0.0
  0
LINE
  5
1D9
330
1F
100
AcDbEntity
  8
0
100
AcDbLine
 10
-9.35611779849425
 20
21.74712241251129
 30
0.0
 11
-9.634994269331202
 21
21.46824594167433
 31
0.0
  0
LINE
  5
1DA
330
1F
100
AcDbEntity
  8
0
100
AcDbLine
 10
-8.975165454813217
 20
21.84919828535536
 30
0.0
 11
-9.35611779849425
 21
21.74712241251129
 31
0.0
  0
LINE
  5
1DB
330
1F
100
AcDbEntity
  8
0
100
AcDbLine
 10
-8.594213111132188
 20
21.74712241251129
 30
0.0
 11
-8.975165454813217
 21
21.84919828535536
 31
0.0
  0
LINE
  5
1DC
330
1F
100
AcDbEntity
  8
0
100
AcDbLine
 10
-8.315336640295234
 20
21.46824594167433
 30
0.0
 11
-8.594213111132188
 21
21.74712241251129
 31
0.0
  0
LINE
  5
1DD
330
1F
100
AcDbEntity
  8
0
100
AcDbLine
 10
-13.68007688051162
 20
12.3253896933296
 30
0.0
 11
-13.71618010008713
 21
12.43811968571196
 31
0.0
  0
LINE
  5
1DE
330
1F
100
AcDbEntity
  8
0
100
AcDbLine
 10
-13.71323144551018
 20
12.2016551722521
 30
0.0
 11
-13.68007688051162
 21
12.3253896933296
 31
0.0
  0
LINE
  5
1DF
330
1F
100
AcDbEntity
  8
0
100
AcDbLine
 10
-13.80381140158911
 20
12.11107521617317
 30
0.0
 11
-13.71323144551018
 21
12.2016551722521
 31
0.0
  0
LINE
  5
1E0
330
1F
100
AcDbEntity
  8
0
100
AcDbLine
 10
-13.92754592266661
 20
12.0779206511746
 30
0.0
 11
-13.80381140158911
 21
12.11107521617317
 31
0.0
  0
LINE
  5
1E1
330
1F
100
AcDbEntity
  8
0
100
AcDbLine
 10
-14.05128044374412
 20
12.11107521617317
 30
0.0
 11
-13.92754592266661
 21
12.0779206511746
 31
0.0
  0
LINE
  5
1E2
330
1F
100
AcDbEntity
  8
0
100
AcDbLine
 10
-14.17501496482161
 20
12.3253896933296
 30
0.0
 11
-14.14186039982305
 21
12.2016551722521
 31
0.0
  0
LINE
  5
1E3
330
1F
100
AcDbEntity
  8
0
100
AcDbLine
 10
-14.14186039982305
 20
12.4491242144071
 30
0.0
 11
-14.17501496482161
 21
12.3253896933296
 31
0.0
  0
LINE
  5
1E4
330
1F
100
AcDbEntity
  8
0
100
AcDbLine
 10
-14.05128044374412
 20
12.53970417048603
 30
0.0
 11
-14.14186039982305
 21
12.4491242144071
 31
0.0
  0
LINE
  5
1E5
330
1F
100
AcDbEntity
  8
0
100
AcDbLine
 10
-13.92754592266661
 20
12.5728587354846
 30
0.0
 11
-14.05128044374412
 21
12.53970417048603
 31
0.0
  0
LINE
  5
1E6
330
1F
100
AcDbEntity
  8
0
100
AcDbLine
 10
-13.80381140158911
 20
12.53970417048603
 30
0.0
 11
-13.92754592266661
 21
12.5728587354846
 31
0.0
  0
LINE
  5
1E7
330
1F
100
AcDbEntity
  8
0
100
AcDbLine
 10
-13.71618010008713
 20
12.43811968571196
 30
0.0
 11
-13.80381140158911
 21
12.53970417048603
 31
0.0
  0
LINE
  5
1E8
330
1F
100
AcDbEntity
  8
0
100
AcDbLine
 10
13.36753952084155
 20
-10.91270327121326
 30
0.0
 11
13.33438495584298
 21
-10.78896875013576
 31
0.0
  0
LINE
  5
1E9
330
1F
100
AcDbEntity
  8
0
100
AcDbLine
 10
13.33438495584298
 20
-11.03643779229076
 30
0.0
 11
13.36753952084155
 21
-10.91270327121326
 31
0.0
  0
LINE
  5
1EA
330
1F
100
AcDbEntity
  8
0
100
AcDbLine
 10
13.24380499976405
 20
-11.12701774836969
 30
0.0
 11
13.33438495584298
 21
-11.03643779229076
 31
0.0
  0
LINE
  5
1EB
330
1F
100
AcDbEntity
  8
0
100
AcDbLine
 10
13.12007047868655
 20
-11.16017231336826
 30
0.0
 11
13.24380499976405
 21
-11.12701774836969
 31
0.0
  0
LINE
  5
1EC
330
1F
100
AcDbEntity
  8
0
100
AcDbLine
 10
12.99633595760905
 20
-11.12701774836969
 30
0.0
 11
13.12007047868655
 21
-11.16017231336826
 31
0.0
  0
LINE
  5
1ED
330
1F
100
AcDbEntity
  8
0
100
AcDbLine
 10
12.90606249007973
 20
-11.03529396145166
 30
0.0
 11
12.99633595760905
 21
-11.12701774836969
 31
0.0
  0
LINE
  5
1EE
330
1F
100
AcDbEntity
  8
0
100
AcDbLine
 10
12.87260143653155
 20
-10.91270327121326
 30
0.0
 11
12.90606249007973
 21
-11.03529396145166
 31
0.0
  0
LINE
  5
1EF
330
1F
100
AcDbEntity
  8
0
100
AcDbLine
 10
12.90575600153012
 20
-10.78896875013576
 30
0.0
 11
12.87260143653155
 21
-10.91270327121326
 31
0.0
  0
LINE
  5
1F0
330
1F
100
AcDbEntity
  8
0
100
AcDbLine
 10
12.99633595760905
 20
-10.69838879405683
 30
0.0
 11
12.90575600153012
 21
-10.78896875013576
 31
0.0
  0
LINE
  5
1F1
330
1F
100
AcDbEntity
  8
0
100
AcDbLine
 10
13.12007047868655
 20
-10.66523422905826
 30
0.0
 11
12.99633595760905
 21
-10.69838879405683
 31
0.0
  0
LINE
  5
1F2
330
1F
100
AcDbEntity
  8
0
100
AcDbLine
 10
13.2195918239425
 20
-10.70487669496441
 30
0.0
 11
13.12007047868655
 21
-10.66523422905826
 31
0.0
  0
LINE
  5
1F3
330
1F
100
AcDbEntity
  8
0
100
AcDbLine
 10
13.33438495584298
 20
-10.78896875013576
 30
0.0
 11
13.2195918239425
 21
-10.70487669496441
 31
0.0
  0
LINE
  5
1F4
330
1F
100
AcDbEntity
  8
0
100
AcDbLine
 10
-11.77531516210646
 20
-12.81746498961841
 30
0.0
 11
-11.80846972710503
 21
-12.69373046854091
 31
0.0
  0
LINE
  5
1F5
330
1F
100
AcDbEntity
  8
0
100
AcDbLine
 10
-11.81363237353013
 20
-12.92193225193593
 30
0.0
 11
-11.77531516210646
 21
-12.81746498961841
 31
0.0
  0
LINE
  5
1F6
330
1F
100
AcDbEntity
  8
0
100
AcDbLine
 10
-11.89904968318396
 20
-13.03177946677484
 30
0.0
 11
-11.81363237353013
 21
-12.92193225193593
 31
0.0
  0
LINE
  5
1F7
330
1F
100
AcDbEntity
  8
0
100
AcDbLine
 10
-12.02278420426146
 20
-13.06493403177341
 30
0.0
 11
-11.89904968318396
 21
-13.03177946677484
 31
0.0
  0
LINE
  5
1F8
330
1F
100
AcDbEntity
  8
0
100
AcDbLine
 10
-12.14651872533896
 20
-13.03177946677484
 30
0.0
 11
-12.02278420426146
 21
-13.06493403177341
 31
0.0
  0
LINE
  5
1F9
330
1F
100
AcDbEntity
  8
0
100
AcDbLine
 10
-12.23709868141789
 20
-12.94119951069591
 30
0.0
 11
-12.14651872533896
 21
-13.03177946677484
 31
0.0
  0
LINE
  5
1FA
330
1F
100
AcDbEntity
  8
0
100
AcDbLine
 10
-12.27025324641646
 20
-12.81746498961841
 30
0.0
 11
-12.23709868141789
 21
-12.94119951069591
 31
0.0
  0
LINE
  5
1FB
330
1F
100
AcDbEntity
  8
0
100
AcDbLine
 10
-12.23709868141789
 20
-12.69373046854091
 30
0.0
 11
-12.27025324641646
 21
-12.81746498961841
 31
0.0
  0
LINE
  5
1FC
330
1F
100
AcDbEntity
  8
0
100
AcDbLine
 10
-12.13555672957567
 20
-12.60608777037419
 30
0.0
 11
-12.23709868141789
 21
-12.69373046854091
 31
0.0
  0
LINE
  5
1FD
330
1F
100
AcDbEntity
  8
0
100
AcDbLine
 10
-12.02278420426146
 20
-12.56999594746341
 30
0.0
 11
-12.13555672957567
 21
-12.60608777037419
 31
0.0
  0
LINE
  5
1FE
330
1F
100
AcDbEntity
  8
0
100
AcDbLine
 10
-11.89904968318396
 20
-12.60315051246198
 30
0.0
 11
-12.02278420426146
 21
-12.56999594746341
 31
0.0
  0
LINE
  5
1FF
330
1F
100
AcDbEntity
  8
0
100
AcDbLine
 10
-11.80846972710503
 20
-12.69373046854091
 30
0.0
 11
-11.89904968318396
 21
-12.60315051246198
 31
0.0
  0
LINE
  5
200
330
1F
100
AcDbEntity
  8
0
100
AcDbLine
 10
-28.02278263886474
 20
-17.9258259446483
 30
0.0
 11
-27.77522146819425
 21
-17.76746413906736
 31
0.0
  0
LINE
  5
201
330
1F
100
AcDbEntity
  8
0
100
AcDbLine
 10
-19.0359068776965
 20
-26.91270170581653
 30
0.0
 11
-18.86773830385611
 21
-26.6749473034055
 31
0.0
  0
LINE
  5
202
330
1F
100
AcDbEntity
  8
0
100
AcDbLine
 10
27.21530719488467
 20
-17.16392125728623
 30
0.0
 11
26.97487949017921
 21
-17.01229033274497
 31
0.0
  0
LINE
  5
203
330
1F
100
AcDbEntity
  8
0
100
AcDbLine
 10
-18.27400219033444
 20
28.32538812793288
 30
0.0
 11
-18.11256449753372
 21
28.07515365496795
 31
0.0
  0
LINE
  5
204
330
1F
100
AcDbEntity
  8
0
100
AcDbLine
 10
26.08427139702968
 20
-16.51909809691456
 30
0.0
 11
26.31676109186541
 21
-16.66633318801818
 31
0.0
  0
LINE
  5
205
330
1F
100
AcDbEntity
  8
0
100
AcDbLine
 10
-22.11141792077631
 20
25.22969712129036
 30
0.0
 11
-22.30849748364928
 21
25.45456997647751
 31
0.0
  0
LINE
  5
206
330
1F
100
AcDbEntity
  8
0
100
AcDbLine
 10
-24.39005980004732
 20
23.37300766007948
 30
0.0
 11
-24.17459112819427
 21
23.16652391387241
 31
0.0
  0
LINE
  5
207
330
1F
100
AcDbEntity
  8
0
100
AcDbLine
 10
24.34448904342931
 20
-21.19841655060108
 30
0.0
 11
24.12942295650161
 21
-21.01114375598756
 31
0.0
  0
LINE
  5
208
330
1F
100
AcDbEntity
  8
0
100
AcDbLine
 10
22.06624974908365
 20
-23.07431696340552
 30
0.0
 11
22.26292672703128
 21
-23.27997886699911
 31
0.0
  0
LINE
  5
209
330
1F
100
AcDbEntity
  8
0
100
AcDbLine
 10
23.7867361017554
 20
-3.11685579959977
 30
0.0
 11
23.57659736172844
 21
-3.089320615799362
 31
0.0
  0
LINE
  5
20A
330
1F
100
AcDbEntity
  8
0
100
AcDbLine
 10
22.82142355540605
 20
-5.90766762953971
 30
0.0
 11
23.02483141439334
 21
-5.960322803359861
 31
0.0
  0
LINE
  5
20B
330
1F
100
AcDbEntity
  8
0
100
AcDbLine
 10
-17.25404114295181
 20
22.2301506290364
 30
0.0
 11
-17.11770468081585
 21
22.09381416690043
 31
0.0
  0
LINE
  5
20C
330
1F
100
AcDbEntity
  8
0
100
AcDbLine
 10
-17.11770468081585
 20
22.09381416690043
 30
0.0
 11
-16.97516467211486
 21
21.95127415819944
 31
0.0
  0
LINE
  5
20D
330
1F
100
AcDbEntity
  8
0
100
AcDbLine
 10
-15.83230764107176
 20
22.61110297271743
 30
0.0
 11
-15.91156202596648
 21
22.90688436386711
 31
0.0
  0
LINE
  5
20E
330
1F
100
AcDbEntity
  8
0
100
AcDbLine
 10
-15.91156202596648
 20
22.90688436386711
 30
0.0
 11
-15.93438351391584
 21
22.99205531639846
 31
0.0
  0
LINE
  5
20F
330
1F
100
AcDbEntity
  8
0
100
AcDbLine
 10
-27.48934362592619
 20
-17.66331552680132
 30
0.0
 11
-27.24649500604791
 21
-17.50727281233968
 31
0.0
  0
LINE
  5
210
330
1F
100
AcDbEntity
  8
0
100
AcDbLine
 10
-26.98378285557135
 20
-17.3504637312783
 30
0.0
 11
-26.74540050222223
 21
-17.19718483787412
 31
0.0
  0
LINE
  5
211
330
1F
100
AcDbEntity
  8
0
100
AcDbLine
 10
11.00099428312496
 20
14.35388593281225
 30
0.0
 11
10.99358814201211
 21
14.31685940058319
 31
0.0
  0
LINE
  5
212
330
1F
100
AcDbEntity
  8
0
100
AcDbLine
 10
10.99358814201211
 20
14.31685940058319
 30
0.0
 11
10.96783971812639
 21
14.23015141173475
 31
0.0
  0
LINE
  5
213
330
1F
100
AcDbEntity
  8
0
100
AcDbLine
 10
6.962773622635807
 20
25.80963223600077
 30
0.0
 11
7.024832979790066
 21
26.03967406584669
 31
0.0
  0
LINE
  5
214
330
1F
100
AcDbEntity
  8
0
100
AcDbLine
 10
4.181365976029975
 20
26.80157875320875
 30
0.0
 11
4.14442660889546
 21
26.56480604232317
 31
0.0
  0
LINE
  5
215
330
1F
100
AcDbEntity
  8
0
100
AcDbLine
 10
-18.60754697712843
 20
-26.14622084125917
 30
0.0
 11
-18.77339645984953
 21
-26.37926269287799
 31
0.0
  0
LINE
  5
216
330
1F
100
AcDbEntity
  8
0
100
AcDbLine
 10
26.51762857345621
 20
-16.78726876738147
 30
0.0
 11
26.75398079050576
 21
-16.93689406967373
 31
0.0
  0
LINE
  5
217
330
1F
100
AcDbEntity
  8
0
100
AcDbLine
 10
-18.04697500272193
 20
27.86406172355395
 30
0.0
 11
-17.88754293217021
 21
27.61790273824495
 31
0.0
  0
LINE
  5
218
330
1F
100
AcDbEntity
  8
0
100
AcDbLine
 10
-23.07040217101134
 20
-23.66093121068014
 30
0.0
 11
-22.8665917270987
 21
-23.45190386656672
 31
0.0
  0
LINE
  5
219
330
1F
100
AcDbEntity
  8
0
100
AcDbLine
 10
-24.92976493451665
 20
-21.38873065914876
 30
0.0
 11
-25.15196448740937
 21
-21.57936889428211
 31
0.0
  0
LINE
  5
21A
330
1F
100
AcDbEntity
  8
0
100
AcDbLine
 10
-8.262951070941432
 20
24.32035908471076
 30
0.0
 11
-8.315336640295234
 21
24.51586469112258
 31
0.0
  0
LINE
  5
21B
330
1F
100
AcDbEntity
  8
0
100
AcDbLine
 10
-9.73707014217528
 20
24.13491234744154
 30
0.0
 11
-9.651050116456833
 21
23.9216977201948
 31
0.0
  0
LINE
  5
21C
330
1F
100
AcDbEntity
  8
0
100
AcDbLine
 10
-9.634994269331205
 20
20.70634125431227
 30
0.0
 11
-9.585676005194879
 21
20.65702299017594
 31
0.0
  0
LINE
  5
21D
330
1F
100
AcDbEntity
  8
0
100
AcDbLine
 10
-9.585676005194879
 20
20.65702299017594
 30
0.0
 11
-9.35611779849425
 21
20.42746478347531
 31
0.0
  0
LINE
  5
21E
330
1F
100
AcDbEntity
  8
0
100
AcDbLine
 10
-8.241876609586662
 20
24.29928462335599
 30
0.0
 11
-8.262951070941432
 21
24.32035908471076
 31
0.0
  0
LINE
  5
21F
330
1F
100
AcDbEntity
  8
0
100
AcDbLine
 10
-8.241876609586662
 20
21.27858939806642
 30
0.0
 11
-8.272805764742909
 21
21.30951855322267
 31
0.0
  0
LINE
  5
220
330
1F
100
AcDbEntity
  8
0
100
AcDbLine
 10
-8.272805764742909
 20
21.30951855322267
 30
0.0
 11
-8.315336640295234
 21
21.46824594167433
 31
0.0
  0
LINE
  5
221
330
1F
100
AcDbEntity
  8
0
100
AcDbLine
 10
-17.88754293217021
 20
27.61790273824495
 30
0.0
 11
-17.6193722617033
 21
27.18454556181842
 31
0.0
  0
LINE
  5
222
330
1F
100
AcDbEntity
  8
0
100
AcDbLine
 10
-18.60754697712843
 20
-26.14622084125917
 30
0.0
 11
-18.29745900266287
 21
-25.64512633743349
 31
0.0
  0
ENDSEC
  0
SECTION
  2
OBJECTS
  0
DICTIONARY
  5
C
330
0
100
AcDbDictionary
  3
ACAD_GROUP
350
D
  3
ACAD_LAYOUT
350
1A
  3
ACAD_MATERIAL
350
43
  3
ACAD_MLEADERSTYLE
350
245
  3
ACAD_MLINESTYLE
350
17
  3
ACAD_PLOTSETTINGS
350
19
  3
ACAD_SCALELIST
350
47
  3
ACAD_VISUALSTYLE
350
2A
  3
ACDBHEADERROUNDTRIPXREC
350
223
  3
ACDBVARIABLEDICTIONARY
350
243
  0
DICTIONARY
  5
24A
330
8
100
AcDbDictionary
280
     1
  3
ACAD_XREC_ROUNDTRIP
360
24B
  0
DICTIONARY
  5
D
102
{ACAD_REACTORS
330
C
102
}
330
C
100
AcDbDictionary
  0
DICTIONARY
  5
1A
102
{ACAD_REACTORS
330
C
102
}
330
C
100
AcDbDictionary
  0
DICTIONARY
  5
43
102
{ACAD_REACTORS
330
C
102
}
330
C
100
AcDbDictionary
  3
BYBLOCK
350
45
  3
BYLAYER
350
44
  3
GLOBAL
350
46
  0
DICTIONARY
  5
245
102
{ACAD_REACTORS
330
C
102
}
330
C
100
AcDbDictionary
  0
DICTIONARY
  5
17
102
{ACAD_REACTORS
330
C
102
}
330
C
100
AcDbDictionary
  3
STANDARD
350
18
  0
DICTIONARY
  5
19
102
{ACAD_REACTORS
330
C
102
}
330
C
100
AcDbDictionary
  0
DICTIONARY
  5
47
102
{ACAD_REACTORS
330
C
102
}
330
C
100
AcDbDictionary
  3
A0
350
48
  3
A1
350
49
  3
A2
350
4A
  3
A3
350
4B
  3
A4
350
4C
  3
A5
350
4D
  3
A6
350
4E
  3
A7
350
4F
  3
A8
350
50
  3
A9
350
51
  3
B0
350
52
  3
B1
350
53
  3
B2
350
54
  3
B3
350
55
  3
B4
350
56
  3
B5
350
57
  3
B6
350
58
  3
B7
350
59
  3
B8
350
5A
  3
B9
350
5B
  3
C0
350
5C
  3
C1
350
5D
  3
C2
350
5E
  3
C3
350
5F
  3
C4
350
60
  3
C5
350
61
  3
C6
350
62
  3
C7
350
63
  3
C8
350
64
  3
C9
350
65
  3
D0
350
66
  3
D1
350
67
  3
D2
350
68
  0
DICTIONARY
  5
2A
102
{ACAD_REACTORS
330
C
102
}
330
C
100
AcDbDictionary
  3
2DWIREFRAME
350
2F
  3
BASIC
350
32
  3
BRIGHTEN
350
36
  3
COLORCHANGE
350
3A
  3
CONCEPTUAL
350
34
  3
DIM
350
35
  3
EDGECOLOROFF
350
3D
  3
FACEPATTERN
350
39
  3
FLAT
350
2B
  3
FLATWITHEDGES
350
2C
  3
GOURAUD
350
2D
  3
GOURAUDWITHEDGES
350
2E
  3
HIDDEN
350
31
  3
JITTEROFF
350
3B
  3
LINEPATTERN
350
38
  3
OVERHANGOFF
350
3C
  3
REALISTIC
350
33
  3
SHADED
350
42
  3
SHADED_WITH_EDGES
350
41
  3
SHADES_OF_GRAY
350
3E
  3
SKETCHY
350
3F
  3
THICKEN
350
37
  3
WIREFRAME
350
30
  3
X-RAY
350
40
  0
DICTIONARY
  5
223
102
{ACAD_REACTORS
330
C
102
}
330
C
100
AcDbDictionary
  3
CEPSNTYPE
350
22C
  3
DIMSTYLEDATA
350
242
  3
FINGERPRINTGUID
350
22D
  3
HYPERLINKBASE
350
226
  3
INSUNITS
350
22B
  3
LAYOUTDICT
350
228
  3
LWETCUNION
350
22A
  3
PLOTSETDICT
350
229
  3
PSVPSCALE
350
22F
  3
PUCSBASE
350
232
  3
PUCSORGBACK
350
238
  3
PUCSORGBOTTOM
350
234
  3
PUCSORGFRONT
350
237
  3
PUCSORGLEFT
350
235
  3
PUCSORGRIGHT
350
236
  3
PUCSORGTOP
350
233
  3
PUCSORTHOREF
350
230
  3
PUCSORTHOVIEW
350
231
  3
STYLESHEET
350
227
  3
TSTACKALIGN
350
224
  3
TSTACKSIZE
350
225
  3
UCSBASE
350
23B
  3
UCSORGBACK
350
241
  3
UCSORGBOTTOM
350
23D
  3
UCSORGFRONT
350
240
  3
UCSORGLEFT
350
23E
  3
UCSORGRIGHT
350
23F
  3
UCSORGTOP
350
23C
  3
UCSORTHOREF
350
239
  3
UCSORTHOVIEW
350
23A
  3
VERSIONGUID
350
22E
  0
DICTIONARY
  5
243
102
{ACAD_REACTORS
330
C
102
}
330
C
100
AcDbDictionary
  3
CANNOSCALE
350
24C
  3
DIMASSOC
350
248
  3
HIDETEXT
350
249
  3
MSLTSCALE
350
24D
  0
XRECORD
  5
24B
102
{ACAD_REACTORS
330
24A
102
}
330
24A
100
AcDbXrecord
102
VTR_0.000_0.000_1.000_1.000_GRIDDISPLAY
 70
     3
102
VTR_0.000_0.000_1.000_1.000_GRIDMAJOR
 70
     5
102
VTR_0.000_0.000_1.000_1.000_DEFAULTLIGHTING
280
     1
102
VTR_0.000_0.000_1.000_1.000_DEFAULTLIGHTINGTYPE
 70
     1
102
VTR_0.000_0.000_1.000_1.000_BRIGHTNESS
141
0.0
102
VTR_0.000_0.000_1.000_1.000_CONTRAST
142
0.0
  0
MATERIAL
  5
45
102
{ACAD_REACTORS
330
43
102
}
102
{ACAD_XDICTIONARY
360
250
102
}
330
43
100
AcDbMaterial
  1
BYBLOCK
  0
MATERIAL
  5
44
102
{ACAD_REACTORS
330
43
102
}
102
{ACAD_XDICTIONARY
360
24E
102
}
330
43
100
AcDbMaterial
  1
BYLAYER
  0
MATERIAL
  5
46
102
{ACAD_REACTORS
330
43
102
}
102
{ACAD_XDICTIONARY
360
252
102
}
330
43
100
AcDbMaterial
  1
GLOBAL
  0
MLINESTYLE
  5
18
102
{ACAD_REACTORS
330
17
102
}
330
17
100
AcDbMlineStyle
  2
Standard
 70
     0
  3

 62
   256
 51
90.0
 52
90.0
 71
     2
 49
0.5
 62
   256
  6
BYLAYER
 49
-0.5
 62
   256
  6
BYLAYER
  0
ACAD_PROXY_OBJECT
  5
48
102
{ACAD_REACTORS
330
47
102
}
330
47
100
AcDbProxyObject
 90
      499
 91
      503
 93
       41
310
903313A31580
  0
ACAD_PROXY_OBJECT
  5
49
102
{ACAD_REACTORS
330
47
102
}
330
47
100
AcDbProxyObject
 90
      499
 91
      503
 93
      105
310
903313A324000000000000004000
  0
ACAD_PROXY_OBJECT
  5
4A
102
{ACAD_REACTORS
330
47
102
}
330
47
100
AcDbProxyObject
 90
      499
 91
      503
 93
      105
310
903313A344000000000000104000
  0
ACAD_PROXY_OBJECT
  5
4B
102
{ACAD_REACTORS
330
47
102
}
330
47
100
AcDbProxyObject
 90
      499
 91
      503
 93
      105
310
903313A354000000000000144000
  0
ACAD_PROXY_OBJECT
  5
4C
102
{ACAD_REACTORS
330
47
102
}
330
47
100
AcDbProxyObject
 90
      499
 91
      503
 93
      105
310
903313A384000000000000204000
  0
ACAD_PROXY_OBJECT
  5
4D
102
{ACAD_REACTORS
330
47
102
}
330
47
100
AcDbProxyObject
 90
      499
 91
      503
 93
      113
310
904313A31304000000000000244000
  0
ACAD_PROXY_OBJECT
  5
4E
102
{ACAD_REACTORS
330
47
102
}
330
47
100
AcDbProxyObject
 90
      499
 91
      503
 93
      113
310
904313A31364000000000000304000
  0
ACAD_PROXY_OBJECT
  5
4F
102
{ACAD_REACTORS
330
47
102
}
330
47
100
AcDbProxyObject
 90
      499
 91
      503
 93
      113
310
904313A32304000000000000344000
  0
ACAD_PROXY_OBJECT
  5
50
102
{ACAD_REACTORS
330
47
102
}
330
47
100
AcDbProxyObject
 90
      499
 91
      503
 93
      113
310
904313A333040000000000003E4000
  0
ACAD_PROXY_OBJECT
  5
51
102
{ACAD_REACTORS
330
47
102
}
330
47
100
AcDbProxyObject
 90
      499
 91
      503
 93
      113
310
904313A34304000000000000444000
  0
ACAD_PROXY_OBJECT
  5
52
102
{ACAD_REACTORS
330
47
102
}
330
47
100
AcDbProxyObject
 90
      499
 91
      503
 93
      113
310
904313A35304000000000000494000
  0
ACAD_PROXY_OBJECT
  5
53
102
{ACAD_REACTORS
330
47
102
}
330
47
100
AcDbProxyObject
 90
      499
 91
      503
 93
      121
310
905313A3130304000000000000594000
  0
ACAD_PROXY_OBJECT
  5
54
102
{ACAD_REACTORS
330
47
102
}
330
47
100
AcDbProxyObject
 90
      499
 91
      503
 93
      105
310
903323A310000000000000010100
  0
ACAD_PROXY_OBJECT
  5
55
102
{ACAD_REACTORS
330
47
102
}
330
47
100
AcDbProxyObject
 90
      499
 91
      503
 93
      105
310
903343A310000000000000410100
  0
ACAD_PROXY_OBJECT
  5
56
102
{ACAD_REACTORS
330
47
102
}
330
47
100
AcDbProxyObject
 90
      499
 91
      503
 93
      105
310
903383A310000000000000810100
  0
ACAD_PROXY_OBJECT
  5
57
102
{ACAD_REACTORS
330
47
102
}
330
47
100
AcDbProxyObject
 90
      499
 91
      503
 93
      113
310
90431303A310000000000000910100
  0
ACAD_PROXY_OBJECT
  5
58
102
{ACAD_REACTORS
330
47
102
}
330
47
100
AcDbProxyObject
 90
      499
 91
      503
 93
      121
310
9053130303A310000000000001650100
  0
ACAD_PROXY_OBJECT
  5
59
102
{ACAD_REACTORS
330
47
102
}
330
47
100
AcDbProxyObject
 90
      499
 91
      503
 93
      257
310
90E312F31323822203D2031272D3022000000000000200FC000000000000284000
  0
ACAD_PROXY_OBJECT
  5
5A
102
{ACAD_REACTORS
330
47
102
}
330
47
100
AcDbProxyObject
 90
      499
 91
      503
 93
      249
310
90D312F363422203D2031272D3022000000000000240FC000000000000284000
  0
ACAD_PROXY_OBJECT
  5
5B
102
{ACAD_REACTORS
330
47
102
}
330
47
100
AcDbProxyObject
 90
      499
 91
      503
 93
      249
310
90D312F333222203D2031272D3022000000000000280FC000000000000284000
  0
ACAD_PROXY_OBJECT
  5
5C
102
{ACAD_REACTORS
330
47
102
}
330
47
100
AcDbProxyObject
 90
      499
 91
      503
 93
      249
310
90D312F313622203D2031272D30220000000000002C0FC000000000000284000
  0
ACAD_PROXY_OBJECT
  5
5D
102
{ACAD_REACTORS
330
47
102
}
330
47
100
AcDbProxyObject
 90
      499
 91
      503
 93
      249
310
90D332F333222203D2031272D30220000000000002E0FC000000000000284000
  0
ACAD_PROXY_OBJECT
  5
5E
102
{ACAD_REACTORS
330
47
102
}
330
47
100
AcDbProxyObject
 90
      499
 91
      503
 93
      241
310
90C312F3822203D2031272D3022000000000000300FC000000000000284000
  0
ACAD_PROXY_OBJECT
  5
5F
102
{ACAD_REACTORS
330
47
102
}
330
47
100
AcDbProxyObject
 90
      499
 91
      503
 93
      249
310
90D332F313622203D2031272D3022000000000000320FC000000000000284000
  0
ACAD_PROXY_OBJECT
  5
60
102
{ACAD_REACTORS
330
47
102
}
330
47
100
AcDbProxyObject
 90
      499
 91
      503
 93
      241
310
90C312F3422203D2031272D3022000000000000340FC000000000000284000
  0
ACAD_PROXY_OBJECT
  5
61
102
{ACAD_REACTORS
330
47
102
}
330
47
100
AcDbProxyObject
 90
      499
 91
      503
 93
      241
310
90C332F3822203D2031272D3022000000000000360FC000000000000284000
  0
ACAD_PROXY_OBJECT
  5
62
102
{ACAD_REACTORS
330
47
102
}
330
47
100
AcDbProxyObject
 90
      499
 91
      503
 93
      241
310
90C312F3222203D2031272D3022000000000000380FC000000000000284000
  0
ACAD_PROXY_OBJECT
  5
63
102
{ACAD_REACTORS
330
47
102
}
330
47
100
AcDbProxyObject
 90
      499
 91
      503
 93
      241
310
90C332F3422203D2031272D30220000000000003A0FC000000000000284000
  0
ACAD_PROXY_OBJECT
  5
64
102
{ACAD_REACTORS
330
47
102
}
330
47
100
AcDbProxyObject
 90
      499
 91
      503
 93
      161
310
90A3122203D2031272D30224000000000000284000
  0
ACAD_PROXY_OBJECT
  5
65
102
{ACAD_REACTORS
330
47
102
}
330
47
100
AcDbProxyObject
 90
      499
 91
      503
 93
      257
310
90E312D312F3222203D2031272D30220000000000003E0FC000000000000284000
  0
ACAD_PROXY_OBJECT
  5
66
102
{ACAD_REACTORS
330
47
102
}
330
47
100
AcDbProxyObject
 90
      499
 91
      503
 93
      225
310
90A3322203D2031272D302200000000000002100000000000000284000
  0
ACAD_PROXY_OBJECT
  5
67
102
{ACAD_REACTORS
330
47
102
}
330
47
100
AcDbProxyObject
 90
      499
 91
      503
 93
      225
310
90A3622203D2031272D302200000000000006100000000000000284000
  0
ACAD_PROXY_OBJECT
  5
68
102
{ACAD_REACTORS
330
47
102
}
330
47
100
AcDbProxyObject
 90
      499
 91
      503
 93
      249
310
90D31272D3022203D2031272D30220000000000000A100000000000000284000
  0
ACAD_PROXY_OBJECT
  5
2F
102
{ACAD_REACTORS
330
2A
102
}
330
2A
100
AcDbProxyObject
 90
      499
 91
      501
 93
      436
310
42CC9915DA5C99599C985B595049028333333333333E33F0000000000000F90107901411070040501600405405064090741402480A0340
1001
ACAD
1000
AcDbSavedByObjectVersion
1070
     0
  0
ACAD_PROXY_OBJECT
  5
32
102
{ACAD_REACTORS
330
2A
102
}
330
2A
100
AcDbProxyObject
 90
      499
 91
      501
 93
      388
310
4150985CDA58D07406404333333333333E33F0000000000000F90107A41107004050150841D405064090741402480A0350
1001
ACAD
1000
AcDbSavedByObjectVersion
1070
     0
  0
ACAD_PROXY_OBJECT
  5
36
102
{ACAD_REACTORS
330
2A
102
}
330
2A
100
AcDbProxyObject
 90
      499
 91
      501
 93
      428
310
42109C9A59DA1D195B90C409028333333333333E33F0000000000000F9010790141107004050150841D405064090741402480A029950
1001
ACAD
1000
AcDbSavedByObjectVersion
1070
     0
  0
ACAD_PROXY_OBJECT
  5
3A
102
{ACAD_REACTORS
330
2A
102
}
330
2A
100
AcDbProxyObject
 90
      499
 91
      501
 93
      452
310
42D0DBDB1BDC90DA185B99D95104090240C333333333333E33F0000000000000F90108901411070040501508421405064090741402480A0350
1001
ACAD
1000
AcDbSavedByObjectVersion
1070
     0
  0
ACAD_PROXY_OBJECT
  5
34
102
{ACAD_REACTORS
330
2A
102
}
330
2A
100
AcDbProxyObject
 90
      499
 91
      501
 93
      500
310
4290DBDB98D95C1D1D585B10940D028333333333333E33F0000000000000F90107902409070040501000000000018199010841D405064090740C02480A0340
1001
ACAD
1000
AcDbSavedByObjectVersion
1070
     0
  0
ACAD_PROXY_OBJECT
  5
35
102
{ACAD_REACTORS
330
2A
102
}
330
2A
100
AcDbProxyObject
 90
      499
 91
      501
 93
      412
310
40D11A5B50B409028333333333333E33F0000000000000F9010790141107004050150841D405064090741402480A02677FFFFFD0
1001
ACAD
1000
AcDbSavedByObjectVersion
1070
     0
  0
ACAD_PROXY_OBJECT
  5
3D
102
{ACAD_REACTORS
330
2A
102
}
330
2A
100
AcDbProxyObject
 90
      499
 91
      501
 93
      452
310
43115919D950DBDB1BDC93D999916409028333333333333E33F0000000000000F9010790141107004050150841D405064090741402480A0350
1001
ACAD
1000
AcDbSavedByObjectVersion
1070
     0
  0
ACAD_PROXY_OBJECT
  5
39
102
{ACAD_REACTORS
330
2A
102
}
330
2A
100
AcDbProxyObject
 90
      499
 91
      501
 93
      444
310
42D19858D95C185D1D195C9B90F409028333333333333E33F0000000000000F9010790141107004050150841D405064090741402480A0350
1001
ACAD
1000
AcDbSavedByObjectVersion
1070
     0
  0
ACAD_PROXY_OBJECT
  5
2B
102
{ACAD_REACTORS
330
2A
102
}
330
2A
100
AcDbProxyObject
 90
      499
 91
      501
 93
      380
310
41119B185D240901404333333333333E33F0000000000000F9010740A907004050150841D405064090741402480A1B50
1001
ACAD
1000
AcDbSavedByObjectVersion
1070
     0
  0
ACAD_PROXY_OBJECT
  5
2C
102
{ACAD_REACTORS
330
2A
102
}
330
2A
100
AcDbProxyObject
 90
      499
 91
      501
 93
      468
310
43519B185D15DA5D1A115919D95CD0140901404333333333333E33F0000000000000F90107409019070040501600405405064090741402480A1B50
1001
ACAD
1000
AcDbSavedByObjectVersion
1070
     0
  0
ACAD_PROXY_OBJECT
  5
2D
102
{ACAD_REACTORS
330
2A
102
}
330
2A
100
AcDbProxyObject
 90
      499
 91
      501
 93
      404
310
41D1DBDD5C985D5910240902404333333333333E33F0000000000000F9010740A9070040501641D405064090741402480A1B50
1001
ACAD
1000
AcDbSavedByObjectVersion
1070
     0
  0
ACAD_PROXY_OBJECT
  5
2E
102
{ACAD_REACTORS
330
2A
102
}
330
2A
100
AcDbProxyObject
 90
      499
 91
      501
 93
      492
310
4411DBDD5C985D5915DA5D1A115919D95CD0340902404333333333333E33F0000000000000F90107409019070040501600405405064090741402480A1B50
1001
ACAD
1000
AcDbSavedByObjectVersion
1070
     0
  0
ACAD_PROXY_OBJECT
  5
31
102
{ACAD_REACTORS
330
2A
102
}
330
2A
100
AcDbProxyObject
 90
      499
 91
      501
 93
      476
310
41921A5919195B90640502408333333333333E33F0000000000000F901079024090700405020000000000001110200405405064090740C02480A0340
1001
ACAD
1000
AcDbSavedByObjectVersion
1070
     0
  0
ACAD_PROXY_OBJECT
  5
3B
102
{ACAD_REACTORS
330
2A
102
}
330
2A
100
AcDbProxyObject
 90
      499
 91
      501
 93
      428
310
42529A5D1D195C93D999914409028333333333333E33F0000000000000F9010790141107004050150A41D405064090741402480A0350
1001
ACAD
1000
AcDbSavedByObjectVersion
1070
     0
  0
ACAD_PROXY_OBJECT
  5
38
102
{ACAD_REACTORS
330
2A
102
}
330
2A
100
AcDbProxyObject
 90
      499
 91
      501
 93
      444
310
42D31A5B995C185D1D195C9B90E409028333333333333E33F0000000000000F9010790141107004050750841D405064090741402483A0350
1001
ACAD
1000
AcDbSavedByObjectVersion
1070
     0
  0
ACAD_PROXY_OBJECT
  5
3C
102
{ACAD_REACTORS
330
2A
102
}
330
2A
100
AcDbProxyObject
 90
      499
 91
      501
 93
      444
310
42D3DD995C9A185B99D3D999915409028333333333333E33F0000000000000F9010790141107004050150941D405064090741402480A0350
1001
ACAD
1000
AcDbSavedByObjectVersion
1070
     0
  0
ACAD_PROXY_OBJECT
  5
33
102
{ACAD_REACTORS
330
2A
102
}
330
2A
100
AcDbProxyObject
 90
      499
 91
      501
 93
      428
310
425499585B1A5CDD1A58D08409038333333333333E33F0000000000000F9010740A907004050150800405405064090740C02480A1B40
1001
ACAD
1000
AcDbSavedByObjectVersion
1070
     0
  0
ACAD_PROXY_OBJECT
  5
42
102
{ACAD_REACTORS
330
2A
102
}
330
2A
100
AcDbProxyObject
 90
      499
 91
      501
 93
      420
310
4194DA1859195911B40902404333333333333E33F0000000000000F9010740A41107004050150800405405064090840C02480A0B40
1001
ACAD
1000
AcDbSavedByObjectVersion
1070
     0
  0
ACAD_PROXY_OBJECT
  5
41
102
{ACAD_REACTORS
330
2A
102
}
330
2A
100
AcDbProxyObject
 90
      499
 91
      501
 93
      516
310
4454DA18591959081DDA5D1A08195919D95CD1A40902404333333333333E33F0000000000000F901074090142907004050250800405405064090740C02480A0B40
1001
ACAD
1000
AcDbSavedByObjectVersion
1070
     0
  0
ACAD_PROXY_OBJECT
  5
3E
102
{ACAD_REACTORS
330
2A
102
}
330
2A
100
AcDbProxyObject
 90
      499
 91
      501
 93
      532
310
4394DA1859195CC81BD98811DC985E5174090240C333333333333E33F0000000000000F901079024090741D01000000000000111010841D405064090740C02480A0340
1001
ACAD
1000
AcDbSavedByObjectVersion
1070
     0
  0
ACAD_PROXY_OBJECT
  5
3F
102
{ACAD_REACTORS
330
2A
102
}
330
2A
100
AcDbProxyObject
 90
      499
 91
      501
 93
      476
310
41D4DAD95D18DA1E51840502408333333333333E33F0000000000000F901079024090741D01000000000000111010B41D405064090741802480A0340
1001
ACAD
1000
AcDbSavedByObjectVersion
1070
     0
  0
ACAD_PROXY_OBJECT
  5
37
102
{ACAD_REACTORS
330
2A
102
}
330
2A
100
AcDbProxyObject
 90
      499
 91
      501
 93
      412
310
41D51A1A58DAD95B90D409028333333333333E33F0000000000000F9010790141107004050150C41D405064090741402480A0350
1001
ACAD
1000
AcDbSavedByObjectVersion
1070
     0
  0
ACAD_PROXY_OBJECT
  5
30
102
{ACAD_REACTORS
330
2A
102
}
330
2A
100
AcDbProxyObject
 90
      499
 91
      501
 93
      420
310
4255DA5C99599C985B595059028333333333333E33F0000000000000F90107901411070040501600405405064090740C02480A0340
1001
ACAD
1000
AcDbSavedByObjectVersion
1070
     0
  0
ACAD_PROXY_OBJECT
  5
40
102
{ACAD_REACTORS
330
2A
102
}
330
2A
100
AcDbProxyObject
 90
      499
 91
      501
 93
      404
310
41560B54985E51940902404000000000000E03F0000000000000F9010740501907004050150841D405064090740C02480A1B40
1001
ACAD
1000
AcDbSavedByObjectVersion
1070
     0
  0
XRECORD
  5
22C
102
{ACAD_REACTORS
330
223
102
}
330
223
100
AcDbXrecord
 90
        0
  0
XRECORD
  5
242
102
{ACAD_REACTORS
330
223
102
}
330
223
100
AcDbXrecord
1000
DSTYLE
1002
{
1070
   340
340
11
1002
}
  0
XRECORD
  5
22D
102
{ACAD_REACTORS
330
223
102
}
330
223
100
AcDbXrecord
  1
{A55DCAB2-11B9-8135-DC7B-81295FF3E998}
  0
XRECORD
  5
226
102
{ACAD_REACTORS
330
223
102
}
330
223
100
AcDbXrecord
  1

  0
XRECORD
  5
22B
102
{ACAD_REACTORS
330
223
102
}
330
223
100
AcDbXrecord
 90
        1
  0
XRECORD
  5
228
102
{ACAD_REACTORS
330
223
102
}
330
223
100
AcDbXrecord
340
1A
  0
XRECORD
  5
22A
102
{ACAD_REACTORS
330
223
102
}
330
223
100
AcDbXrecord
 90
    10781
  0
XRECORD
  5
229
102
{ACAD_REACTORS
330
223
102
}
330
223
100
AcDbXrecord
340
19
  0
XRECORD
  5
22F
102
{ACAD_REACTORS
330
223
102
}
330
223
100
AcDbXrecord
 40
0.0
  0
XRECORD
  5
232
102
{ACAD_REACTORS
330
223
102
}
330
223
100
AcDbXrecord
340
0
  0
XRECORD
  5
238
102
{ACAD_REACTORS
330
223
102
}
330
223
100
AcDbXrecord
 10
0.0
 20
0.0
 30
0.0
  0
XRECORD
  5
234
102
{ACAD_REACTORS
330
223
102
}
330
223
100
AcDbXrecord
 10
0.0
 20
0.0
 30
0.0
  0
XRECORD
  5
237
102
{ACAD_REACTORS
330
223
102
}
330
223
100
AcDbXrecord
 10
0.0
 20
0.0
 30
0.0
  0
XRECORD
  5
235
102
{ACAD_REACTORS
330
223
102
}
330
223
100
AcDbXrecord
 10
0.0
 20
0.0
 30
0.0
  0
XRECORD
  5
236
102
{ACAD_REACTORS
330
223
102
}
330
223
100
AcDbXrecord
 10
0.0
 20
0.0
 30
0.0
  0
XRECORD
  5
233
102
{ACAD_REACTORS
330
223
102
}
330
223
100
AcDbXrecord
 10
0.0
 20
0.0
 30
0.0
  0
XRECORD
  5
230
102
{ACAD_REACTORS
330
223
102
}
330
223
100
AcDbXrecord
340
0
  0
XRECORD
  5
231
102
{ACAD_REACTORS
330
223
102
}
330
223
100
AcDbXrecord
 70
     0
  0
XRECORD
  5
227
102
{ACAD_REACTORS
330
223
102
}
330
223
100
AcDbXrecord
  1

  0
XRECORD
  5
224
102
{ACAD_REACTORS
330
223
102
}
330
223
100
AcDbXrecord
 90
        1
  0
XRECORD
  5
225
102
{ACAD_REACTORS
330
223
102
}
330
223
100
AcDbXrecord
 90
       70
  0
XRECORD
  5
23B
102
{ACAD_REACTORS
330
223
102
}
330
223
100
AcDbXrecord
340
0
  0
XRECORD
  5
241
102
{ACAD_REACTORS
330
223
102
}
330
223
100
AcDbXrecord
 10
0.0
 20
0.0
 30
0.0
  0
XRECORD
  5
23D
102
{ACAD_REACTORS
330
223
102
}
330
223
100
AcDbXrecord
 10
0.0
 20
0.0
 30
0.0
  0
XRECORD
  5
240
102
{ACAD_REACTORS
330
223
102
}
330
223
100
AcDbXrecord
 10
0.0
 20
0.0
 30
0.0
  0
XRECORD
  5
23E
102
{ACAD_REACTORS
330
223
102
}
330
223
100
AcDbXrecord
 10
0.0
 20
0.0
 30
0.0
  0
XRECORD
  5
23F
102
{ACAD_REACTORS
330
223
102
}
330
223
100
AcDbXrecord
 10
0.0
 20
0.0
 30
0.0
  0
XRECORD
  5
23C
102
{ACAD_REACTORS
330
223
102
}
330
223
100
AcDbXrecord
 10
0.0
 20
0.0
 30
0.0
  0
XRECORD
  5
239
102
{ACAD_REACTORS
330
223
102
}
330
223
100
AcDbXrecord
340
0
  0
XRECORD
  5
23A
102
{ACAD_REACTORS
330
223
102
}
330
223
100
AcDbXrecord
 70
     0
  0
XRECORD
  5
22E
102
{ACAD_REACTORS
330
223
102
}
330
223
100
AcDbXrecord
  1
{FAEB1C32-E019-11D5-929B-00C0DF256EC4}
  0
DICTIONARYVAR
  5
24C
102
{ACAD_REACTORS
330
243
102
}
330
243
100
DictionaryVariables
280
     0
  1
1:1
  0
DICTIONARYVAR
  5
248
102
{ACAD_REACTORS
330
243
102
}
330
243
100
DictionaryVariables
280
     0
  1
2
  0
DICTIONARYVAR
  5
249
102
{ACAD_REACTORS
330
243
102
}
330
243
100
DictionaryVariables
280
     0
  1
1
  0
DICTIONARYVAR
  5
24D
102
{ACAD_REACTORS
330
243
102
}
330
243
100
DictionaryVariables
280
     0
  1
1
  0
DICTIONARY
  5
250
330
45
100
AcDbDictionary
280
     1
  3
ACAD_XREC_ROUNDTRIP
360
251
  0
DICTIONARY
  5
24E
330
44
100
AcDbDictionary
280
     1
  3
ACAD_XREC_ROUNDTRIP
360
24F
  0
DICTIONARY
  5
252
330
46
100
AcDbDictionary
280
     1
  3
ACAD_XREC_ROUNDTRIP
360
253
  0
XRECORD
  5
251
102
{ACAD_REACTORS
330
250
102
}
330
250
100
AcDbXrecord
102
MATERIAL
148
0.0
149
0.0
149
0.0
 93
        0
 94
      127
282
     0
 72
     1
 77
     1
171
     1
175
     1
179
     1
273
     0
  0
XRECORD
  5
24F
102
{ACAD_REACTORS
330
24E
102
}
330
24E
100
AcDbXrecord
102
MATERIAL
148
0.0
149
0.0
149
0.0
 93
        0
 94
      127
282
     0
 72
     1
 77
     1
171
     1
175
     1
179
     1
273
     0
  0
XRECORD
  5
253
102
{ACAD_REACTORS
330
252
102
}
330
252
100
AcDbXrecord
102
MATERIAL
148
0.0
149
0.0
149
0.0
 93
        0
 94
      127
282
     0
 72
     1
 77
     1
171
     1
175
     1
179
     1
273
     0
  0
ENDSEC
  0
EOF
