<?xml version="1.0" encoding="utf-8"?>
<!-- Generator: Adobe Illustrator 16.0.0, SVG Export Plug-In . SVG Version: 6.00 Build 0)  -->
<!DOCTYPE svg PUBLIC "-//W3C//DTD SVG 1.1//EN" "http://www.w3.org/Graphics/SVG/1.1/DTD/svg11.dtd">
<svg version="1.1" id="Layer_1" xmlns="http://www.w3.org/2000/svg" xmlns:xlink="http://www.w3.org/1999/xlink" x="0px" y="0px"
	 width="500px" height="500px" viewBox="0 0 500 500" enable-background="new 0 0 500 500" xml:space="preserve">
<path fill-rule="evenodd" clip-rule="evenodd" fill="#B3B3B3" d="M491.659,71.619c-10.718-29.328-33.951-52.561-63.278-63.278
	C403.576,0,387.407,0,329.788,0H170.212c-57.619,0-73.788,0-98.593,8.341C42.292,19.058,19.058,42.292,8.341,71.619
	C0,96.424,0,112.593,0,170.212v159.576c0,57.621,0,73.788,8.341,98.595c10.717,29.325,33.951,52.559,63.278,63.278
	C96.424,500,112.593,500,170.212,500h159.576c57.619,0,73.788,0,98.593-8.339c29.327-10.72,52.561-33.953,63.278-63.278
	C500,403.576,500,387.409,500,329.788V170.212C500,112.593,500,96.424,491.659,71.619"/>
</svg>
